<?xml version="1.0" encoding="utf-8"?> <!-- Generator: IcoMoon.io --> <!DOCTYPE svg PUBLIC "-//W3C//DTD SVG 1.1//EN" "http://www.w3.org/Graphics/SVG/1.1/DTD/svg11.dtd"> <svg fill="#000000" xmlns:xlink="http://www.w3.org/1999/xlink" xmlns="http://www.w3.org/2000/svg" width="512" height="512" viewBox="0 0 512 512"><path d="M 384.00,288.00L 384.00,224.00L 288.00,320.00L 288.00,128.00L 224.00,128.00L 224.00,320.00L 128.00,224.00L 128.00,288.00L 256.00,416.00 zM 512.00,256.00C 512.00,114.615, 397.385,0.00, 256.00,0.00S0.00,114.615,0.00,256.00s 114.615,256.00, 256.00,256.00S 512.00,397.385, 512.00,256.00z M 32.00,256.00 C 32.00,132.288, 132.288,32.00, 256.00,32.00s 224.00,100.288, 224.00,224.00S 379.712,480.00, 256.00,480.00S 32.00,379.712, 32.00,256.00z" ></path></svg>