<?xml version="1.0" encoding="utf-8"?> <!-- Generator: IcoMoon.io --> <!DOCTYPE svg PUBLIC "-//W3C//DTD SVG 1.1//EN" "http://www.w3.org/Graphics/SVG/1.1/DTD/svg11.dtd"> <svg fill="#000000" xmlns:xlink="http://www.w3.org/1999/xlink" xmlns="http://www.w3.org/2000/svg" width="512" height="512" viewBox="0 0 512 512"><path d="M 128.00,224.00L 128.00,287.999L 224.00,192.00L 224.00,383.999L 288.00,384.00L 288.001,192.00L 384.001,288.00L 384.001,224.00L 256.001,96.00 zM0.00,256.00c0.00,141.384, 114.615,255.999, 256.00,256.00c 141.385,0.00, 256.00-114.615, 256.00-256.00c 0.001-141.385-114.614-256.00-256.00-256.00 S0.00,114.615,0.00,256.00z M 480.001,256.00C 480.00,379.712, 379.712,480.00, 256.00,480.00C 132.288,479.999, 32.00,379.711, 32.00,256.00c0.00-123.712, 100.288-224.00, 224.00-224.00 S 480.001,132.288, 480.001,256.00z" ></path></svg>