<?xml version="1.0" encoding="utf-8"?> <!-- Generator: IcoMoon.io --> <!DOCTYPE svg PUBLIC "-//W3C//DTD SVG 1.1//EN" "http://www.w3.org/Graphics/SVG/1.1/DTD/svg11.dtd"> <svg fill="#000000" xmlns:xlink="http://www.w3.org/1999/xlink" xmlns="http://www.w3.org/2000/svg" width="512" height="512" viewBox="0 0 512 512"><path d="M 480.00,256.00c0.00,0.00-16.279-192.00-32.00-224.00S 320.00,0.00, 256.00,0.00S 79.72,0.00, 64.00,32.00S 32.00,256.00, 32.00,256.00l0.00,192.00 l 64.00,0.00 l0.00,32.00 c0.00,17.673, 14.327,32.00, 32.00,32.00 s 32.00-14.327, 32.00-32.00l0.00-32.00 l 192.00,0.00 l0.00,32.00 c0.00,17.673, 14.327,32.00, 32.00,32.00c 17.674,0.00, 32.00-14.327, 32.00-32.00l0.00-32.00 l 64.00,0.00 L 480.00,256.00 z M 160.00,32.00l 192.00,0.00 l0.00,32.00 L 160.00,64.00 L 160.00,32.00 z M 105.058,200.77c 6.083-53.329, 10.847-81.788, 13.844-96.464c 8.586-2.002, 23.196-4.479, 46.867-6.145C 196.495,96.00, 229.49,96.00, 256.00,96.00 s 59.505,0.00, 90.231,2.161c 23.671,1.665, 38.281,4.142, 46.867,6.145c 2.996,14.676, 7.761,43.136, 13.844,96.465 c 0.903,7.917, 1.759,15.718, 2.559,23.23L 102.499,224.001 C 103.299,216.488, 104.155,208.687, 105.058,200.77z M 128.00,366.40 c-25.626,0.00-46.40-20.773-46.40-46.40c0.00-25.626, 20.773-46.40, 46.40-46.40s 46.40,20.774, 46.40,46.40C 174.40,345.627, 153.627,366.40, 128.00,366.40z M 384.00,366.40c-25.627,0.00-46.399-20.773-46.399-46.40c0.00-25.626, 20.772-46.40, 46.399-46.40s 46.40,20.774, 46.40,46.40 C 430.401,345.627, 409.627,366.40, 384.00,366.40z" ></path></svg>