<?xml version="1.0" encoding="utf-8"?> <!-- Generator: IcoMoon.io --> <!DOCTYPE svg PUBLIC "-//W3C//DTD SVG 1.1//EN" "http://www.w3.org/Graphics/SVG/1.1/DTD/svg11.dtd"> <svg fill="#000000" xmlns:xlink="http://www.w3.org/1999/xlink" xmlns="http://www.w3.org/2000/svg" width="512" height="512" viewBox="0 0 512 512"><path d="M 304.00,224.00l-16.00,0.00 l0.00-64.00 c0.00-70.692-57.308-128.00-128.00-128.00S 32.00,89.308, 32.00,160.00l0.00,64.00 L 16.00,224.00 c-8.80,0.00-16.00,7.20-16.00,16.00l0.00,224.00 c0.00,8.80, 7.20,16.00, 16.00,16.00l 288.00,0.00 c 8.80,0.00, 16.00-7.20, 16.00-16.00L 320.00,240.00 C 320.00,231.20, 312.80,224.00, 304.00,224.00z M 186.465,344.041L 192.00,416.00l-64.00,0.00 l 5.535-71.959 C 120.561,335.449, 112.00,320.728, 112.00,304.00c0.00-26.51, 21.49-48.00, 48.00-48.00s 48.00,21.49, 48.00,48.00C 208.00,320.728, 199.439,335.449, 186.465,344.041z M 64.00,224.00 l0.00-64.00 c0.00-53.02, 42.98-96.00, 96.00-96.00s 96.00,42.98, 96.00,96.00l0.00,64.00 L 64.00,224.00 z" ></path></svg>