<?xml version="1.0" encoding="utf-8"?> <!-- Generator: IcoMoon.io --> <!DOCTYPE svg PUBLIC "-//W3C//DTD SVG 1.1//EN" "http://www.w3.org/Graphics/SVG/1.1/DTD/svg11.dtd"> <svg xmlns:xlink="http://www.w3.org/1999/xlink" xmlns="http://www.w3.org/2000/svg" fill="#000000" width="992" height="544" viewBox="0 0 992 544"><path d="M 32.00,18.00L 26.00,12.00L 26.00,6.00L 22.00,6.00L 22.00,8.00L 16.00,2.00L0.00,18.00L 4.00,18.00L 4.00,30.00L 14.00,30.00L 14.00,22.00L 18.00,22.00L 18.00,30.00L 28.00,30.00L 28.00,18.00 zM 92.00,8.00L 92.00,4.00 L 64.00,4.00 l0.00,22.00 c0.00,1.105, 0.895,2.00, 2.00,2.00l 27.00,0.00 c 1.657,0.00, 3.00-1.343, 3.00-3.00L 96.00,8.00 L 92.00,8.00 z M 90.00,26.00L 66.00,26.00 L 66.00,6.00 l 24.00,0.00 L 90.00,26.00 zM 68.00,10.00L 88.00,10.00L 88.00,12.00L 68.00,12.00zM 80.00,14.00L 88.00,14.00L 88.00,16.00L 80.00,16.00zM 80.00,18.00L 88.00,18.00L 88.00,20.00L 80.00,20.00zM 80.00,22.00L 86.00,22.00L 86.00,24.00L 80.00,24.00zM 68.00,14.00L 78.00,14.00L 78.00,24.00L 68.00,24.00zM 158.50,1.50c-2.00-2.00-4.00-2.00-6.00,0.00l-0.50,0.50l 6.00,6.00l 0.50-0.50C 160.50,5.50, 160.50,3.50, 158.50,1.50zM 130.00,24.00L 128.00,32.00l 8.00-2.00l 20.00-20.00l-6.00-6.00L 130.00,24.00z M 136.00,26.00l-2.00-2.00l 16.00-16.00l 2.00,2.00L 136.00,26.00zM 204.00,20.00L 208.00,18.00L 222.00,4.00L 220.00,2.00L 206.00,16.00 zM 201.041,27.722c-0.989-2.085-2.677-3.774-4.762-4.762l 2.437-8.123L 204.00,12.00L 216.00,0.00l-6.00,0.00 L 198.00,12.00L 192.00,32.00l 20.00-6.00l 12.00-12.00 l0.00-6.00 L 212.00,20.00l-2.836,5.285M 256.00,4.00l0.00,24.00 l 32.00,0.00 L 288.00,4.00 L 256.00,4.00 z M 286.00,26.00l-2.00,0.00 l-6.00-9.00l-4.00,3.00L 266.00,10.00L 260.00,26.00L 258.00,26.00 L 258.00,6.00 l 28.00,0.00 L 286.00,26.00 zM 278.00,11.00A3.00,3.00 10080.00 1,0 284.00,11A3.00,3.00 10080.00 1,0 278.00,11zM 346.00,17.993c-2.00,0.00-4.00,2.007-6.00,2.007s-2.00-8.00-6.00-8.00S 326.00,16.00, 324.00,24.00c0.00,0.00, 22.00,0.00, 24.00,0.00 C 348.00,24.00, 348.00,17.993, 346.00,17.993zM 320.00,6.00l0.00,22.00 l 32.00,0.00 L 352.00,6.00 L 320.00,6.00 z M 350.00,26.00L 322.00,26.00 L 322.00,8.00 l 28.00,0.00 L 350.00,26.00 zM 342.00,13.00A3.00,3.00 10080.00 1,0 348.00,13A3.00,3.00 10080.00 1,0 342.00,13zM 393.625,17.00A6.375,6.375 10080.00 1,0 406.375,17A6.375,6.375 10080.00 1,0 393.625,17zM 414.00,8.00L 407.00,8.00 c-0.50-2.00-1.00-4.00-3.00-4.00L 396.00,4.00 c-2.00,0.00-2.50,2.00-3.00,4.00L 386.00,8.00 c-1.10,0.00-2.00,0.90-2.00,2.00l0.00,16.00 c0.00,1.10, 0.90,2.00, 2.00,2.00l 28.00,0.00 c 1.10,0.00, 2.00-0.90, 2.00-2.00L 416.00,10.00 C 416.00,8.90, 415.10,8.00, 414.00,8.00z M 400.00,26.00c-4.971,0.00-9.00-4.029-9.00-9.00c0.00-4.971, 4.029-9.00, 9.00-9.00 c 4.971,0.00, 9.00,4.029, 9.00,9.00C 409.00,21.971, 404.971,26.00, 400.00,26.00z M 414.00,12.00l-4.00,0.00 l0.00-2.00 l 4.00,0.00 L 414.00,12.00 zM 462.00,12.00L 454.00,32.00l 3.037,0.00 L 464.00,25.908L 470.963,32.00L 474.00,32.00 L 466.00,12.00L 462.00,12.00 z M 457.314,29.10l 2.679-6.699l 2.488,2.177 L 457.314,29.10z M 470.686,29.10l-5.168-4.521l 2.488-2.177L 470.686,29.10z M 464.00,23.25l-3.219-2.817L 463.354,14.00l 1.292,0.00 l 2.573,6.433L 464.00,23.25zM 470.929,4.00C 471.61,5.177, 472.00,6.543, 472.00,8.00s-0.39,2.823-1.071,4.00l 1.732,1.00 C 473.513,11.529, 474.00,9.822, 474.00,8.00s-0.487-3.529-1.338-5.00L 470.929,4.00zM 457.07,12.00C 456.39,10.823, 456.00,9.457, 456.00,8.00s 0.39-2.823, 1.071-4.00L 455.338,3.00 C 454.487,4.471, 454.00,6.178, 454.00,8.00s 0.487,3.529, 1.338,5.00L 457.07,12.00zM 450.141,0.00C 448.779,2.353, 448.00,5.086, 448.00,8.00s 0.779,5.647, 2.141,8.00l 1.732-1.00C 450.682,12.941, 450.00,10.55, 450.00,8.00 S 450.682,3.059, 451.873,1.00L 450.141,0.00zM 480.00,8.00c0.00-2.914-0.779-5.647-2.141-8.00l0.00,0.00L 476.127,1.00C 477.318,3.059, 478.00,5.45, 478.00,8.00s-0.682,4.941-1.873,7.00 l 1.732,1.00l0.00,0.00C 479.221,13.647, 480.00,10.914, 480.00,8.00zM 462.00,8.00A2.00,2.00 10080.00 1,0 466.00,8A2.00,2.00 10080.00 1,0 462.00,8zM 536.00,4.00c-3.074,0.00-5.877,1.156-8.00,3.057C 525.877,5.156, 523.074,4.00, 520.00,4.00S 514.123,5.156, 512.00,7.056l0.00,0.537 l0.00,2.406 l0.00,12.00 L 512.00,24.531 l0.00,0.411 c 0.021,0.019, 0.042,0.039, 0.064,0.058c 0.513,0.453, 1.065,0.862, 1.65,1.223c 0.589-0.477, 1.234-0.888, 1.923-1.223 c 1.319-0.64, 2.799-1.00, 4.363-1.00s 3.045,0.359, 4.363,1.00c 0.689,0.335, 1.333,0.746, 1.923,1.223 c 0.115,0.093, 0.228,0.189, 0.339,0.287c 0.507,0.449, 0.968,0.947, 1.375,1.489c 0.407-0.542, 0.868-1.041, 1.375-1.489 c 0.111-0.098, 0.224-0.194, 0.339-0.287c 0.589-0.477, 1.234-0.888, 1.923-1.223c 1.319-0.64, 2.799-1.00, 4.363-1.00 s 3.045,0.359, 4.363,1.00c 0.689,0.335, 1.333,0.746, 1.923,1.223c 0.585-0.361, 1.137-0.77, 1.65-1.223 c 0.021-0.019, 0.042-0.039, 0.064-0.058L 544.00,24.531 l0.00-2.532 L 544.00,9.999 L 544.00,7.594 l0.00-0.537 C 541.877,5.156, 539.074,4.00, 536.00,4.00z M 520.00,22.00 c-2.186,0.00-4.235,0.585-6.00,1.607L 514.00,8.00 C 515.671,6.744, 517.749,6.00, 520.00,6.00c 2.252,0.00, 4.329,0.745, 6.00,2.001l0.00,15.606 C 524.235,22.585, 522.186,22.00, 520.00,22.00z M 536.00,22.00c-2.186,0.00-4.235,0.585-6.00,1.607L 530.00,8.001 C 531.671,6.745, 533.748,6.00, 536.00,6.00 c 2.251,0.00, 4.329,0.744, 6.00,2.00l0.00,15.607 C 540.235,22.585, 538.186,22.00, 536.00,22.00zM 598.00,0.00L 578.00,0.00 l0.00,32.00 l 28.00,0.00 L 606.00,8.00 L 598.00,0.00z M 604.00,30.00L 580.00,30.00 L 580.00,2.00 l 18.00,0.00 l0.00,6.00 l 6.00,0.00 L 604.00,30.00 zM 670.766,8.00L 641.234,8.00 c-0.825,0.00-1.368,0.662-1.206,1.471l 3.677,17.058C 643.868,27.338, 644.675,28.00, 645.50,28.00l 21.00,0.00 c 0.825,0.00, 1.632-0.662, 1.794-1.471l 3.677-17.058C 672.133,8.662, 671.591,8.00, 670.766,8.00zM 668.00,5.50c0.00-0.828-0.672-1.50-1.50-1.50L 653.00,4.00 l-1.00-2.00L 645.50,2.00 c-0.828,0.00-1.50,0.672-1.50,1.50l0.00,3.50 l 24.00,0.00 L 668.00,5.50 zM 722.00,0.00L 704.00,18.00l 14.00,14.00l 18.00-18.00L 736.00,0.00 L 722.00,0.00 z M 730.00,8.90c-1.602,0.00-2.90-1.298-2.90-2.90S 728.398,3.10, 730.00,3.10 s 2.90,1.298, 2.90,2.90S 731.602,8.90, 730.00,8.90zM 793.406,12.00L 787.848,4.765C 787.946,4.529, 788.00,4.271, 788.00,4.00c0.00-1.105-0.895-2.00-2.00-2.00c-1.105,0.00-2.00,0.895-2.00,2.00 s 0.895,2.00, 2.00,2.00c 0.089,0.00, 0.176-0.006, 0.262-0.018L 790.884,12.00L 777.116,12.00 l 4.622-6.018C 781.824,5.994, 781.911,6.00, 782.00,6.00 c 1.105,0.00, 2.00-0.895, 2.00-2.00s-0.895-2.00-2.00-2.00s-2.00,0.895-2.00,2.00c0.00,0.271, 0.054,0.529, 0.152,0.765L 774.594,12.00L 768.00,12.00 l0.00,4.00 l 2.00,0.00 l 2.00,16.00l 24.00,0.00 l 2.00-16.00l 2.00,0.00 l0.00-4.00 L 793.406,12.00 z M 778.00,28.00L 774.00,28.00 l0.00-4.00 l 4.00,0.00 L 778.00,28.00 z M 778.00,20.00L 774.00,20.00 l0.00-4.00 l 4.00,0.00 L 778.00,20.00 z M 786.00,28.00l-4.00,0.00 l0.00-4.00 l 4.00,0.00 L 786.00,28.00 z M 786.00,20.00l-4.00,0.00 l0.00-4.00 l 4.00,0.00 L 786.00,20.00 z M 794.00,28.00l-4.00,0.00 l0.00-4.00 l 4.00,0.00 L 794.00,28.00 z M 794.00,20.00l-4.00,0.00 l0.00-4.00 l 4.00,0.00 L 794.00,20.00 zM 844.00,0.00L 834.00,0.00 C 832.90,0.00, 832.00,0.90, 832.00,2.00l0.00,10.00 c0.00,1.10, 0.90,2.00, 2.00,2.00l 10.00,0.00 c 1.10,0.00, 2.00-0.90, 2.00-2.00L 846.00,2.00 C 846.00,0.90, 845.10,0.00, 844.00,0.00z M 844.00,8.00 L 834.00,8.00 L 834.00,6.00 l 10.00,0.00 L 844.00,8.00 zM 862.00,0.00L 852.00,0.00 c-1.10,0.00-2.00,0.90-2.00,2.00l0.00,28.00 c0.00,1.10, 0.90,2.00, 2.00,2.00l 10.00,0.00 c 1.10,0.00, 2.00-0.90, 2.00-2.00L 864.00,2.00 C 864.00,0.90, 863.10,0.00, 862.00,0.00z M 862.00,20.00L 852.00,20.00 l0.00-2.00 l 10.00,0.00 L 862.00,20.00 z M 862.00,14.00L 852.00,14.00 l0.00-2.00 l 10.00,0.00 L 862.00,14.00 zM 844.00,18.00L 834.00,18.00 C 832.90,18.00, 832.00,18.90, 832.00,20.00l0.00,10.00 c0.00,1.10, 0.90,2.00, 2.00,2.00l 10.00,0.00 c 1.10,0.00, 2.00-0.90, 2.00-2.00L 846.00,20.00 C 846.00,18.90, 845.10,18.00, 844.00,18.00 z M 844.00,26.00l-4.00,0.00 l0.00,4.00 L 838.00,30.00 l0.00-4.00 L 834.00,26.00 l0.00-2.00 l 4.00,0.00 l0.00-4.00 l 2.00,0.00 l0.00,4.00 l 4.00,0.00 L 844.00,26.00 zM 912.00,0.00C 903.163,0.00, 896.00,7.163, 896.00,16.00s 7.163,16.00, 16.00,16.00s 16.00-7.163, 16.00-16.00S 920.837,0.00, 912.00,0.00z M 906.00,16.00 c0.00-3.314, 2.686-6.00, 6.00-6.00s 6.00,2.686, 6.00,6.00s-2.686,6.00-6.00,6.00S 906.00,19.314, 906.00,16.00z M 924.937,21.359L 924.937,21.359l-5.544-2.297 C 919.784,18.119, 920.00,17.085, 920.00,16.00s-0.216-2.119-0.608-3.062l 3.816-1.581l 1.728-0.716C 925.622,12.292, 926.00,14.102, 926.00,16.00 C 926.00,17.898, 925.621,19.708, 924.937,21.359L 924.937,21.359z M 917.359,3.063L 917.359,3.063L 917.359,3.063l-2.297,5.544 C 914.119,8.216, 913.085,8.00, 912.00,8.00s-2.119,0.216-3.062,0.608l-1.077-2.60l-1.22-2.945C 908.292,2.379, 910.102,2.00, 912.00,2.00 C 913.898,2.00, 915.708,2.379, 917.359,3.063z M 899.063,10.641l 2.945,1.22l 2.60,1.077C 904.216,13.881, 904.00,14.915, 904.00,16.00 s 0.216,2.119, 0.608,3.062l-5.544,2.297C 898.379,19.708, 898.00,17.898, 898.00,16.00C 898.00,14.102, 898.379,12.292, 899.063,10.641z M 906.641,28.937l 0.716-1.728l 1.581-3.816C 909.881,23.784, 910.915,24.00, 912.00,24.00s 2.119-0.216, 3.062-0.608l 2.297,5.544l0.00,0.00l0.00,0.00 C 915.708,29.621, 913.898,30.00, 912.00,30.00C 910.102,30.00, 908.292,29.621, 906.641,28.937zM 982.00,20.00c-2.00,2.00-2.00,4.00-4.00,4.00s-4.00-2.00-6.00-4.00s-4.00-4.00-4.00-6.00s 2.00-2.00, 4.00-4.00S 968.00,2.00, 966.00,2.00S 960.00,8.00, 960.00,8.00c0.00,4.00, 4.109,12.109, 8.00,16.00 s 12.00,8.00, 16.00,8.00c0.00,0.00, 6.00-4.00, 6.00-6.00S 984.00,18.00, 982.00,20.00zM 20.351,80.574L 32.00,88.608L 32.00,70.112 zM0.00,70.112L0.00,88.608L 11.649,80.573 zM 16.00,84.481L 13.219,81.983L0.00,90.00L 32.00,90.00L 18.781,81.983 zM 31.04,70.00L 0.96,70.00L 16.00,81.308 zM 80.00,64.00c-5.104,0.00-9.242,4.138-9.242,9.242c0.00,0.126, 0.004,0.256, 0.01,0.389c 0.003,0.077, 0.008,0.153, 0.013,0.23 c 0.003,0.049, 0.007,0.098, 0.011,0.148c 0.006,0.082, 0.013,0.163, 0.022,0.244C 71.581,81.719, 80.00,96.00, 80.00,96.00 s 8.419-14.281, 9.186-21.747c 0.009-0.081, 0.015-0.163, 0.022-0.244c 0.004-0.05, 0.008-0.10, 0.011-0.148 c 0.005-0.077, 0.01-0.153, 0.013-0.23c 0.006-0.133, 0.01-0.263, 0.01-0.389C 89.242,68.138, 85.104,64.00, 80.00,64.00z M 84.00,74.00 c0.00,2.209-1.791,4.00-4.00,4.00c-2.209,0.00-4.00-1.791-4.00-4.00s 1.791-4.00, 4.00-4.00C 82.209,70.00, 84.00,71.791, 84.00,74.00zM 144.00,64.00C 135.163,64.00, 128.00,71.163, 128.00,80.00s 7.163,16.00, 16.00,16.00s 16.00-7.163, 16.00-16.00S 152.837,64.00, 144.00,64.00z M 144.00,94.00 C 136.268,94.00, 130.00,87.732, 130.00,80.00S 136.268,66.00, 144.00,66.00s 14.00,6.268, 14.00,14.00S 151.732,94.00, 144.00,94.00zM 136.00,88.00l 10.586-4.948L 152.00,72.00l-10.828,5.172L 136.00,88.00z M 144.00,78.00c 1.105,0.00, 2.00,0.895, 2.00,2.00c0.00,1.105-0.895,2.00-2.00,2.00 c-1.105,0.00-2.00-0.895-2.00-2.00C 142.00,78.895, 142.895,78.00, 144.00,78.00zM 208.00,72.00L 208.00,82.00L 216.00,82.00L 216.00,80.00L 210.00,80.00L 210.00,72.00 zM 210.00,66.00C 202.268,66.00, 196.00,72.268, 196.00,80.00L 192.00,80.00 l 5.00,6.00l 5.00-6.00L 198.00,80.00 c0.00-6.627, 5.373-12.00, 12.00-12.00c 6.627,0.00, 12.00,5.373, 12.00,12.00 c0.00,6.627-5.373,12.00-12.00,12.00c-0.681,0.00-1.349-0.058-2.00-0.167l0.00,2.024 c 0.653,0.093, 1.321,0.143, 2.00,0.143 c 7.732,0.00, 14.00-6.268, 14.00-14.00S 217.732,66.00, 210.00,66.00zM 271.00,66.00C 262.716,66.00, 256.00,72.716, 256.00,81.00c0.00,8.284, 6.716,15.00, 15.00,15.00c 8.284,0.00, 15.00-6.716, 15.00-15.00 C 286.00,72.716, 279.284,66.00, 271.00,66.00z M 271.00,94.00c-7.18,0.00-13.00-5.82-13.00-13.00S 263.82,68.00, 271.00,68.00s 13.00,5.82, 13.00,13.00 S 278.18,94.00, 271.00,94.00zM 272.00,78.171L 272.00,70.00 l-2.00,0.00 l0.00,8.171 c-1.165,0.412-2.00,1.522-2.00,2.829c0.00,1.657, 1.343,3.00, 3.00,3.00c 1.306,0.00, 2.417-0.835, 2.829-2.00 L 280.00,82.00 l0.00-2.00 l-6.171,0.00 C 273.527,79.148, 272.852,78.473, 272.00,78.171zM 352.00,90.00c-3.314,0.00-6.00-2.686-6.00-6.00L 346.00,75.091 c0.00-4.398-3.436-8.066-8.00-8.909L 338.00,64.00 l-4.00,0.00 l0.00,2.182 C 329.435,67.024, 326.00,70.693, 326.00,75.091L 326.00,84.00 c0.00,3.314-2.686,6.00-6.00,6.00l0.00,2.00 l 13.425,0.00 c-0.163,0.357-0.253,0.754-0.253,1.172 C 333.171,94.734, 334.438,96.00, 336.00,96.00c 1.562,0.00, 2.828-1.266, 2.828-2.828c0.00-0.418-0.091-0.815-0.254-1.172L 352.00,92.00 L 352.00,90.00 zM 394.00,76.00L 398.00,76.00L 398.00,80.00L 394.00,80.00zM 400.00,76.00L 404.00,76.00L 404.00,80.00L 400.00,80.00zM 406.00,76.00L 410.00,76.00L 410.00,80.00L 406.00,80.00zM 388.00,88.00L 392.00,88.00L 392.00,92.00L 388.00,92.00zM 394.00,88.00L 398.00,88.00L 398.00,92.00L 394.00,92.00zM 400.00,88.00L 404.00,88.00L 404.00,92.00L 400.00,92.00zM 394.00,82.00L 398.00,82.00L 398.00,86.00L 394.00,86.00zM 400.00,82.00L 404.00,82.00L 404.00,86.00L 400.00,86.00zM 406.00,82.00L 410.00,82.00L 410.00,86.00L 406.00,86.00zM 388.00,82.00L 392.00,82.00L 392.00,86.00L 388.00,86.00zM 410.00,64.00l0.00,2.00 l-4.00,0.00 L 406.00,64.00 L 392.00,64.00 l0.00,2.00 L 388.00,66.00 L 388.00,64.00 L 384.00,64.00 l0.00,32.00 l 30.00,0.00 L 414.00,64.00 L 410.00,64.00 z M 412.00,94.00L 386.00,94.00 L 386.00,72.00 l 26.00,0.00 L 412.00,94.00 zM 476.00,82.00L 476.00,90.00L 452.00,90.00L 452.00,82.00L 448.00,82.00L 448.00,94.00L 480.00,94.00L 480.00,82.00 zM 474.00,66.00L 454.00,66.00 l0.00,22.00 l 20.00,0.00 L 474.00,66.00 z M 470.00,84.00L 458.00,84.00 l0.00-2.00 l 12.00,0.00 L 470.00,84.00 z M 470.00,78.00L 458.00,78.00 l0.00-2.00 l 12.00,0.00 L 470.00,78.00 z M 470.00,72.00L 458.00,72.00 L 458.00,70.00 l 12.00,0.00 L 470.00,72.00 zM 533.00,64.00c-0.552,0.00-1.00,0.448-1.00,1.00l0.00,3.00 L 521.00,68.00 c-0.552,0.00-1.00,0.448-1.00,1.00l0.00,26.00 c0.00,0.552, 0.448,1.00, 1.00,1.00l 12.00,0.00 c 0.552,0.00, 1.00-0.448, 1.00-1.00L 534.00,65.00 C 534.00,64.448, 533.552,64.00, 533.00,64.00z M 524.00,94.00l-2.00,0.00 l0.00-2.00 l 2.00,0.00 L 524.00,94.00 z M 524.00,90.00l-2.00,0.00 l0.00-2.00 l 2.00,0.00 L 524.00,90.00 z M 524.00,86.00l-2.00,0.00 l0.00-2.00 l 2.00,0.00 L 524.00,86.00 z M 528.00,94.00l-2.00,0.00 l0.00-2.00 l 2.00,0.00 L 528.00,94.00 z M 528.00,90.00l-2.00,0.00 l0.00-2.00 l 2.00,0.00 L 528.00,90.00 z M 528.00,86.00l-2.00,0.00 l0.00-2.00 l 2.00,0.00 L 528.00,86.00 z M 532.00,94.00l-2.00,0.00 l0.00-2.00 l 2.00,0.00 L 532.00,94.00 z M 532.00,90.00l-2.00,0.00 l0.00-2.00 l 2.00,0.00 L 532.00,90.00 z M 532.00,86.00l-2.00,0.00 l0.00-2.00 l 2.00,0.00 L 532.00,86.00 z M 532.00,81.00c0.00,0.552-0.448,1.00-1.00,1.00L 523.00,82.00 c-0.552,0.00-1.00-0.448-1.00-1.00L 522.00,71.00 c0.00-0.552, 0.448-1.00, 1.00-1.00l 8.00,0.00 c 0.552,0.00, 1.00,0.448, 1.00,1.00L 532.00,81.00 zM 598.00,64.00L 586.00,64.00 L 580.00,68.00l0.00,8.00 l 24.00,0.00 L 604.00,68.00 L 598.00,64.00z M 596.00,74.00l-2.00,0.00 l0.00-1.333 C 594.00,72.30, 593.70,72.00, 593.333,72.00l-2.667,0.00 c-0.367,0.00-0.667,0.30-0.667,0.667L 590.00,74.00 l-2.00,0.00 l0.00-3.333 C 588.00,70.30, 588.30,70.00, 588.667,70.00l 6.667,0.00 c 0.367,0.00, 0.667,0.30, 0.667,0.667 L 596.00,74.00 zM 580.00,86.00l 24.00,0.00 L 604.00,78.00 L 580.00,78.00 L 580.00,86.00 z M 588.00,80.667c0.00-0.367, 0.30-0.667, 0.667-0.667l 6.667,0.00 c 0.367,0.00, 0.667,0.30, 0.667,0.667L 596.00,84.00 l-2.00,0.00 l0.00-1.333 c0.00-0.367-0.30-0.667-0.667-0.667l-2.667,0.00 c-0.367,0.00-0.667,0.30-0.667,0.667L 590.00,84.00 l-2.00,0.00 L 588.00,80.667 zM 580.00,96.00l 24.00,0.00 L 604.00,88.00 L 580.00,88.00 L 580.00,96.00 z M 588.00,90.667c0.00-0.367, 0.30-0.667, 0.667-0.667l 6.667,0.00 c 0.367,0.00, 0.667,0.30, 0.667,0.667 L 596.00,94.00 l-2.00,0.00 l0.00-1.333 c0.00-0.367-0.30-0.667-0.667-0.667l-2.667,0.00 c-0.367,0.00-0.667,0.30-0.667,0.667L 590.00,94.00 l-2.00,0.00 L 588.00,90.667 zM 662.00,70.00L 650.00,70.00 L 640.00,82.00l0.00,5.00 l0.00,3.00 c0.00,1.105, 0.895,2.00, 2.00,2.00l 28.00,0.00 c 1.105,0.00, 2.00-0.895, 2.00-2.00l0.00-3.00 l0.00-5.00 L 662.00,70.00z M 664.00,82.00l-4.00,4.00L 652.00,86.00 l-4.00-4.00L 642.603,82.00 l 8.333-10.00l 10.127,0.00 l 8.333,10.00L 664.00,82.00 zM 726.00,70.00L 714.00,70.00 L 704.00,82.00l0.00,8.00 c0.00,1.105, 0.895,2.00, 2.00,2.00l 28.00,0.00 c 1.105,0.00, 2.00-0.895, 2.00-2.00L 736.00,82.00 L 726.00,70.00z M 724.00,86.00L 716.00,86.00 l-2.00-2.00l 12.00,0.00 L 724.00,86.00z M 706.603,82.00l 8.333-10.00l 10.127,0.00 l 8.333,10.00L 706.603,82.00 zM 712.905,76.00L 727.095,76.00L 725.428,74.00L 714.572,74.00 zM 709.572,80.00L 730.428,80.00L 728.762,78.00L 711.238,78.00 zM 770.00,68.00L 798.00,68.00L 798.00,72.00L 770.00,72.00zM 772.00,92.00l 24.00,0.00 L 796.00,74.00 L 772.00,74.00 L 772.00,92.00 z M 780.00,76.00l 8.00,0.00 l0.00,2.00 L 780.00,78.00 L 780.00,76.00 zM 848.00,82.00L 856.00,74.00L 850.00,74.00L 850.00,66.00L 846.00,66.00L 846.00,74.00L 840.00,74.00 zM 855.273,78.727L 853.031,80.969L 861.158,84.00L 848.00,88.907L 834.842,84.00L 842.969,80.969L 840.727,78.727L 832.00,82.00L 832.00,90.00L 848.00,96.00L 864.00,90.00L 864.00,82.00 zM 910.00,82.00L 914.00,82.00L 914.00,74.00L 920.00,74.00L 912.00,66.00L 904.00,74.00L 910.00,74.00 zM 916.00,77.50L 916.00,80.585L 925.158,84.00L 912.00,88.907L 898.842,84.00L 908.00,80.585L 908.00,77.50L 896.00,82.00L 896.00,90.00L 912.00,96.00L 928.00,90.00L 928.00,82.00 zM 983.808,96.00C 987.362,89.561, 987.961,79.74, 974.00,80.068L 974.00,88.00 L 962.00,76.00L 974.00,64.00l0.00,7.762 C 990.718,71.326, 992.58,86.518, 983.808,96.00zM 18.00,135.762L 18.00,128.00 l 12.00,12.00L 18.00,152.00L 18.00,144.068 C 4.039,143.74, 4.638,153.561, 8.192,160.00 C-0.58,150.518, 1.282,135.326, 18.00,135.762zM 72.192,128.00C 68.638,134.439, 68.039,144.259, 82.00,143.932L 82.00,136.00 l 12.00,12.00L 82.00,160.00L 82.00,152.238 C 65.282,152.674 63.42,137.482, 72.192,128.00zM 142.00,152.238L 142.00,160.00 L 130.00,148.00l 12.00-12.00l0.00,7.932 C 155.961,144.259, 155.362,134.439, 151.808,128.00 C 160.58,137.482, 158.718,152.674, 142.00,152.238zM 218.838,128.00C 222.392,134.439, 223.961,144.259, 210.00,143.932L 210.00,136.00 L 198.00,148.00l 12.00,12.00L 210.00,152.238 C 224.00,152.238, 227.61,137.482, 218.838,128.00 zM 204.00,138.828L 204.00,136.00L 192.00,148.00L 204.00,160.00L 204.00,157.172L 194.828,148.00 zM 285.00,128.00L 259.00,128.00 C 257.35,128.00, 256.00,129.35, 256.00,131.00l0.00,20.00 c0.00,1.65, 1.35,3.00, 3.00,3.00l 7.00,0.00 l 6.00,6.00l 6.00-6.00l 7.00,0.00 c 1.65,0.00, 3.00-1.35, 3.00-3.00L 288.00,131.00 C 288.00,129.35, 286.65,128.00, 285.00,128.00zM 349.00,136.00L 331.00,136.00 c-1.65,0.00-3.00,1.35-3.00,3.00l0.00,14.00 c0.00,1.65, 1.35,3.00, 3.00,3.00l 5.00,0.00 l 4.00,4.00l 4.00-4.00l 5.00,0.00 c 1.65,0.00, 3.00-1.35, 3.00-3.00L 352.00,139.00 C 352.00,137.35, 350.65,136.00, 349.00,136.00zM 344.00,131.00c0.00-1.65-1.35-3.00-3.00-3.00L 323.00,128.00 C 321.35,128.00, 320.00,129.35, 320.00,131.00l0.00,14.00 c0.00,1.65, 1.35,3.00, 3.00,3.00l 1.00,0.00 L 324.00,135.00 c0.00-1.657, 1.343-3.00, 3.00-3.00l 17.00,0.00 L 344.00,131.00 zM 414.00,132.00L 386.00,132.00 C 384.90,132.00, 384.00,132.90, 384.00,134.00l0.00,14.00 c0.00,1.10, 0.90,2.00, 2.00,2.00l 4.00,0.00 l0.00,6.00 l 4.50-6.00l 19.50,0.00 c 1.10,0.00, 2.00-0.90, 2.00-2.00L 416.00,134.00 C 416.00,132.90, 415.10,132.00, 414.00,132.00z M 394.00,144.00L 390.00,144.00 l0.00-4.00 l 4.00,0.00 L 394.00,144.00 z M 402.00,144.00l-4.00,0.00 l0.00-4.00 l 4.00,0.00 L 402.00,144.00 z M 410.00,144.00l-4.00,0.00 l0.00-4.00 l 4.00,0.00 L 410.00,144.00 zM 467.463,149.96c-0.691-0.11-0.707-2.01-0.707-2.01s 2.03-2.01, 2.473-4.713 c 1.19,0.00, 1.926-2.873, 0.735-3.884C 470.014,138.29, 471.494,131.00, 464.00,131.00c-7.494,0.00-6.014,7.29-5.965,8.354 c-1.19,1.011-0.455,3.884, 0.735,3.884c 0.442,2.703, 2.473,4.713, 2.473,4.713s-0.016,1.90-0.707,2.01 C 458.311,150.315, 450.00,153.98, 450.00,158.00l 14.00,0.00 l 14.00,0.00 C 478.00,153.98, 469.689,150.315, 467.463,149.96zM 534.781,144.00C 539.086,141.271, 542.00,136.025, 542.00,130.00c0.00-0.677-0.037-1.345-0.109-2.00L 514.109,128.00 C 514.037,128.655, 514.00,129.323, 514.00,130.00 c0.00,6.025, 2.914,11.271, 7.219,14.00C 516.914,146.729, 514.00,151.975, 514.00,158.00c0.00,0.677, 0.037,1.345, 0.109,2.00l 27.783,0.00 c 0.071-0.655, 0.109-1.323, 0.109-2.00C 542.00,151.975, 539.086,146.729, 534.781,144.00z M 517.00,158.00c0.00-5.841, 2.505-10.794, 7.00-12.428 l0.00-3.143 l0.00,0.00 C 519.505,140.794, 517.00,135.841, 517.00,130.00l0.00,0.00 l 22.00,0.00 l0.00,0.00 c0.00,5.841-2.505,10.794-7.00,12.428l0.00,3.143 C 536.495,147.206, 539.00,152.159, 539.00,158.00L 517.00,158.00 zM 531.363,148.925c-2.239-1.27-2.363-2.918-2.363-3.918L 529.00,143.00 c0.00-1.00, 0.119-2.654, 2.367-3.927 c 1.203-0.699, 2.244-1.761, 3.033-3.073L 521.60,136.00 c 0.79,1.313, 1.832,2.376, 3.036,3.075 c 2.239,1.27, 2.363,2.918, 2.363,3.918L 527.00,145.00 c0.00,1.00-0.119,2.654-2.367,3.927c-2.269,1.318-3.961,3.928-4.472,7.073 l 15.677,0.00 C 535.327,152.853, 533.635,150.242, 531.363,148.925zM 608.00,144.00c-0.04-2.089-0.493-4.172-1.331-6.077c-0.835-1.906-2.046-3.633-3.533-5.06 c-1.486-1.428-3.248-2.557-5.156-3.302C 596.075,128.814, 594.025,128.457, 592.00,128.50c-2.025,0.04-4.042,0.48-5.885,1.292 c-1.845,0.809-3.517,1.983-4.898,3.424c-1.382,1.44-2.474,3.147-3.193,4.994C 577.301,140.056, 576.957,142.039, 577.00,144.00 c 0.04,1.961, 0.468,3.911, 1.254,5.694c 0.784,1.784, 1.921,3.401, 3.316,4.736c 1.394,1.336, 3.046,2.391, 4.832,3.085 C 588.187,158.212, 590.103,158.543, 592.00,158.50c 1.897-0.04, 3.78-0.455, 5.502-1.216c 1.723-0.759, 3.285-1.859, 4.574-3.208 c 1.29-1.348, 2.308-2.945, 2.977-4.67c 0.407-1.046, 0.684-2.138, 0.829-3.244c 0.039,0.002, 0.078,0.004, 0.118,0.004 c 1.105,0.00, 2.00-0.895, 2.00-2.00c0.00-0.056-0.003-0.112-0.007-0.167L 608.00,144.00 z M 604.822,149.311c-0.734,1.663-1.796,3.169-3.099,4.412 c-1.302,1.244-2.844,2.225-4.508,2.868C 595.552,157.237, 593.769,157.543, 592.00,157.50c-1.769-0.041-3.519-0.429-5.119-1.14 c-1.602-0.708-3.053-1.734-4.25-2.991c-1.198-1.256-2.142-2.743-2.76-4.346C 579.25,147.421, 578.957,145.704, 579.00,144.00 c 0.041-1.705, 0.416-3.388, 1.102-4.928c 0.683-1.541, 1.672-2.937, 2.883-4.088c 1.21-1.152, 2.642-2.058, 4.184-2.652 C 588.71,131.737, 590.36,131.457, 592.00,131.50c 1.641,0.041, 3.257,0.404, 4.736,1.064c 1.48,0.658, 2.821,1.609, 3.926,2.774 c 1.106,1.164, 1.975,2.54, 2.543,4.021C 603.776,140.841, 604.042,142.424, 604.00,144.00l 0.007,0.00 c-0.004,0.055-0.007,0.111-0.007,0.167 c0.00,1.032, 0.781,1.88, 1.784,1.988C 605.589,147.243, 605.267,148.305, 604.822,149.311zM 671.008,155.231L 663.428,148.784c-0.784-0.705-1.622-1.029-2.299-0.998C 662.919,145.691, 664.00,142.972, 664.00,140.00 C 664.00,133.373, 658.627,128.00, 652.00,128.00C 645.373,128.00, 640.00,133.373, 640.00,140.00c0.00,6.627, 5.373,12.00, 12.00,12.00c 2.972,0.00, 5.691-1.081, 7.787-2.87 c-0.031,0.677, 0.292,1.515, 0.998,2.299l 6.447,7.58c 1.104,1.226, 2.907,1.33, 4.007,0.23S 672.235,156.335, 671.008,155.231z M 652.00,148.00c-4.418,0.00-8.00-3.582-8.00-8.00S 647.582,132.00, 652.00,132.00s 8.00,3.582, 8.00,8.00S 656.418,148.00, 652.00,148.00zM 735.008,155.231L 727.428,148.784c-0.784-0.705-1.622-1.029-2.299-0.998C 726.919,145.691, 728.00,142.972, 728.00,140.00 C 728.00,133.373, 722.627,128.00, 716.00,128.00C 709.373,128.00, 704.00,133.373, 704.00,140.00c0.00,6.627, 5.373,12.00, 12.00,12.00c 2.972,0.00, 5.691-1.081, 7.787-2.87 c-0.031,0.677, 0.292,1.515, 0.998,2.299l 6.447,7.58c 1.104,1.226, 2.907,1.33, 4.007,0.23S 736.235,156.335, 735.008,155.231 z M 716.00,148.00c-4.418,0.00-8.00-3.582-8.00-8.00S 711.582,132.00, 716.00,132.00s 8.00,3.582, 8.00,8.00S 720.418,148.00, 716.00,148.00zM 718.00,134.00L 714.00,134.00L 714.00,138.00L 710.00,138.00L 710.00,142.00L 714.00,142.00L 714.00,146.00L 718.00,146.00L 718.00,142.00L 722.00,142.00L 722.00,138.00L 718.00,138.00 zM 799.008,155.231L 791.428,148.784c-0.784-0.705-1.622-1.029-2.299-0.998C 790.919,145.691, 792.00,142.972, 792.00,140.00 C 792.00,133.373, 786.627,128.00, 780.00,128.00C 773.373,128.00, 768.00,133.373, 768.00,140.00c0.00,6.627, 5.373,12.00, 12.00,12.00c 2.972,0.00, 5.691-1.081, 7.787-2.87 c-0.031,0.677, 0.292,1.515, 0.998,2.299l 6.447,7.58c 1.104,1.226, 2.907,1.33, 4.007,0.23S 800.235,156.335, 799.008,155.231 z M 780.00,148.00c-4.418,0.00-8.00-3.582-8.00-8.00S 775.582,132.00, 780.00,132.00s 8.00,3.582, 8.00,8.00S 784.418,148.00, 780.00,148.00zM 774.00,138.00L 786.00,138.00L 786.00,142.00L 774.00,142.00zM 854.00,128.00c-5.523,0.00-10.00,4.477-10.00,10.00c0.00,0.626, 0.058,1.238, 0.168,1.832L 832.00,152.00l0.00,6.00 c0.00,1.105, 0.895,2.00, 2.00,2.00 l 2.00,0.00 l0.00-2.00 l 4.00,0.00 l0.00-4.00 l 4.00,0.00 l0.00-4.00 l 4.00,0.00 l 2.595-2.595C 851.658,147.79, 852.804,148.00, 854.00,148.00c 5.523,0.00, 10.00-4.477, 10.00-10.00S 859.523,128.00, 854.00,128.00z M 856.996,138.004c-1.657,0.00-3.00-1.343-3.00-3.00s 1.343-3.00, 3.00-3.00s 3.00,1.343, 3.00,3.00S 858.653,138.004, 856.996,138.004zM 915.00,142.00l-1.00,0.00 l0.00-4.00 c0.00-4.418-3.582-8.00-8.00-8.00S 898.00,133.582, 898.00,138.00l0.00,4.00 L 897.00,142.00 c-0.55,0.00-1.00,0.45-1.00,1.00l0.00,14.00 c0.00,0.55, 0.45,1.00, 1.00,1.00l 18.00,0.00 c 0.55,0.00, 1.00-0.45, 1.00-1.00L 916.00,143.00 C 916.00,142.45, 915.55,142.00, 915.00,142.00z M 907.654,149.503L 908.00,154.00l-4.00,0.00 l 0.346-4.497 C 903.535,148.966, 903.00,148.046, 903.00,147.00c0.00-1.657, 1.343-3.00, 3.00-3.00s 3.00,1.343, 3.00,3.00C 909.00,148.046, 908.465,148.966, 907.654,149.503z M 900.00,142.00 l0.00-4.00 c0.00-3.314, 2.686-6.00, 6.00-6.00s 6.00,2.686, 6.00,6.00l0.00,4.00 L 900.00,142.00 zM 984.00,130.00c-4.418,0.00-8.00,3.582-8.00,8.00l0.00,4.00 L 961.00,142.00 c-0.55,0.00-1.00,0.45-1.00,1.00l0.00,14.00 c0.00,0.55, 0.45,1.00, 1.00,1.00l 18.00,0.00 c 0.55,0.00, 1.00-0.45, 1.00-1.00L 980.00,143.00 c0.00-0.55-0.45-1.00-1.00-1.00l-1.00,0.00 l0.00-4.00 c0.00-3.314, 2.686-6.00, 6.00-6.00s 6.00,2.686, 6.00,6.00l0.00,4.00 l 2.00,0.00 l0.00-4.00 C 992.00,133.582, 988.418,130.00, 984.00,130.00z M 971.654,149.503 L 972.00,154.00l-4.00,0.00 l 0.346-4.497C 967.535,148.966, 967.00,148.046, 967.00,147.00c0.00-1.657, 1.343-3.00, 3.00-3.00s 3.00,1.343, 3.00,3.00 C 973.00,148.046, 972.465,148.966, 971.654,149.503zM 31.743,196.257L 28.00,200.00l-4.00-4.00l 3.743-3.743C 27.191,192.09, 26.606,192.00, 26.00,192.00c-3.314,0.00-6.00,2.686-6.00,6.00 c0.00,0.606, 0.09,1.191, 0.257,1.743L 7.743,212.257C 7.191,212.09, 6.606,212.00, 6.00,212.00c-3.314,0.00-6.00,2.686-6.00,6.00 c0.00,0.606, 0.09,1.191, 0.257,1.743L 4.00,216.00l 4.00,4.00l-3.743,3.743C 4.809,223.91, 5.394,224.00, 6.00,224.00c 3.314,0.00, 6.00-2.686, 6.00-6.00 c0.00-0.606-0.09-1.191-0.257-1.743l 12.515-12.515C 24.809,203.91, 25.394,204.00, 26.00,204.00c 3.314,0.00, 6.00-2.686, 6.00-6.00 C 32.00,197.394, 31.91,196.809, 31.743,196.257zM 73.00,202.00L 69.00,202.00 c-0.55,0.00-1.00,0.45-1.00,1.00l0.00,2.00 c0.00,0.55, 0.45,1.00, 1.00,1.00l 4.00,0.00 c 0.55,0.00, 1.00-0.45, 1.00-1.00l0.00-2.00 C 74.00,202.45, 73.55,202.00, 73.00,202.00zM 70.00,196.00L 72.00,196.00L 72.00,201.00L 70.00,201.00zM 70.00,207.00L 72.00,207.00L 72.00,220.00L 70.00,220.00zM 81.00,210.00l-4.00,0.00 c-0.55,0.00-1.00,0.45-1.00,1.00l0.00,2.00 c0.00,0.55, 0.45,1.00, 1.00,1.00l 4.00,0.00 c 0.55,0.00, 1.00-0.45, 1.00-1.00l0.00-2.00 C 82.00,210.45, 81.55,210.00, 81.00,210.00zM 78.00,196.00L 80.00,196.00L 80.00,209.00L 78.00,209.00zM 78.00,215.00L 80.00,215.00L 80.00,220.00L 78.00,220.00zM 89.00,204.00l-4.00,0.00 c-0.55,0.00-1.00,0.45-1.00,1.00l0.00,2.00 c0.00,0.55, 0.45,1.00, 1.00,1.00l 4.00,0.00 c 0.55,0.00, 1.00-0.45, 1.00-1.00l0.00-2.00 C 90.00,204.45, 89.55,204.00, 89.00,204.00zM 86.00,196.00L 88.00,196.00L 88.00,203.00L 86.00,203.00zM 86.00,209.00L 88.00,209.00L 88.00,220.00L 86.00,220.00zM 91.50,192.00L 66.50,192.00 C 65.121,192.00, 64.00,193.121, 64.00,194.50l0.00,27.00 c0.00,1.379, 1.121,2.50, 2.50,2.50l 25.00,0.00 c 1.379,0.00, 2.50-1.121, 2.50-2.50L 94.00,194.50 C 94.00,193.121, 92.878,192.00, 91.50,192.00z M 92.00,221.50c0.00,0.275-0.225,0.50-0.50,0.50L 66.50,222.00 c-0.275,0.00-0.50-0.225-0.50-0.50L 66.00,194.50 c0.00-0.275, 0.225-0.50, 0.50-0.50l 25.00,0.00 c 0.275,0.00, 0.50,0.225, 0.50,0.50L 92.00,221.50 zM 157.181,211.07c-1.679-2.908-0.669-6.635, 2.255-8.328l-3.145-5.447c-0.898,0.527-1.943,0.829-3.058,0.829 c-3.361,0.00-6.085-2.742-6.085-6.125L 140.86,192.00 c 0.008,1.044-0.252,2.103-0.811,3.07 c-1.679,2.908-5.411,3.897-8.339,2.211L 128.564,202.728c 0.905,0.515, 1.689,1.268, 2.246,2.234 c 1.676,2.903, 0.672,6.622-2.241,8.319l 3.145,5.447c 0.895-0.522, 1.935-0.82, 3.044-0.82 c 3.35,0.00, 6.067,2.725, 6.084,6.092l 6.289,0.00 c-0.003-1.034, 0.259-2.08, 0.811-3.038 c 1.676-2.903, 5.399-3.894, 8.325-2.219l 3.145-5.447C 158.514,212.782, 157.735,212.031, 157.181,211.07z M 144.00,214.479 c-3.578,0.00-6.479-2.901-6.479-6.479c0.00-3.578, 2.901-6.479, 6.479-6.479c 3.578,0.00, 6.479,2.901, 6.479,6.479 C 150.479,211.578, 147.578,214.479, 144.00,214.479zM 206.00,210.00L 206.00,196.00 C 198.268,196.00, 192.00,202.268, 192.00,210.00s 6.268,14.00, 14.00,14.00s 14.00-6.268, 14.00-14.00c0.00-2.251-0.532-4.378-1.476-6.262 L 206.00,210.00zM 220.524,199.738C 218.225,195.15, 213.481,192.00, 208.00,192.00l0.00,14.00 L 220.524,199.738zM 256.00,218.00L 288.00,218.00L 288.00,222.00L 256.00,222.00zM 260.00,210.00L 264.00,210.00L 264.00,216.00L 260.00,216.00zM 266.00,202.00L 270.00,202.00L 270.00,216.00L 266.00,216.00zM 272.00,208.00L 276.00,208.00L 276.00,216.00L 272.00,216.00zM 278.00,196.00L 282.00,196.00L 282.00,216.00L 278.00,216.00zM 322.00,214.00L 326.00,214.00L 326.00,224.00L 322.00,224.00zM 330.00,210.00L 334.00,210.00L 334.00,224.00L 330.00,224.00zM 338.00,208.00L 342.00,208.00L 342.00,224.00L 338.00,224.00zM 346.00,202.00L 350.00,202.00L 350.00,224.00L 346.00,224.00zM 344.00,192.00L 346.00,194.00L 338.00,202.00L 334.00,198.00L 322.00,210.00L 324.00,212.00L 334.00,202.00L 338.00,206.00L 348.00,196.00L 350.00,198.00L 350.00,192.00 zM 404.00,202.00l 6.00-4.00L 404.00,192.00l-3.75,8.75L 398.00,194.00l-6.00,4.00l 5.00,4.00L 386.00,202.00 l0.00,8.00 l 2.00,0.00 l0.00,14.00 l 24.00,0.00 L 412.00,210.00 l 2.00,0.00 L 414.00,202.00 L 404.00,202.00 z M 404.506,194.627l 3.14,3.14 l-6.279,4.186L 404.506,194.627z M 397.198,196.337l 1.773,5.318l-4.432-3.546L 397.198,196.337z M 398.00,222.00L 390.00,222.00 L 390.00,209.00 l 8.00,0.00 L 398.00,222.00 z M 398.00,208.00 L 388.00,208.00 l0.00-4.00 l 10.00,0.00 L 398.00,208.00 z M 410.00,222.00L 402.00,222.00 L 402.00,209.00 l 8.00,0.00 L 410.00,222.00 z M 412.00,208.00L 402.00,208.00 l0.00-4.00 l 10.00,0.00 L 412.00,208.00 zM 480.00,194.00c-2.00,0.00-10.00,0.00-10.00,0.00l0.00,4.00 L 458.00,198.00 L 458.00,194.00 c0.00,0.00-8.00,0.00-10.00,0.00c0.00,10.00, 8.00,21.699, 14.00,23.50l0.00,2.50 c-2.00,0.00-4.00,1.00-4.00,2.00l 12.00,0.00 c0.00-1.00-2.00-2.00-4.00-2.00 l0.00-2.50 C 472.00,215.699, 480.00,204.00, 480.00,194.00z M 471.991,199.077L 472.00,198.00L 472.00,196.00 l 5.889,0.00 c-0.174,1.615-0.553,3.321-1.134,5.093 c-0.767,2.344-1.879,4.744-3.215,6.943c-1.285,2.114-2.744,3.991-4.218,5.428c-0.142,0.138-0.283,0.271-0.423,0.399 C 471.551,208.548, 471.935,201.895, 471.991,199.077z M 458.677,213.464c-1.475-1.437-2.933-3.314-4.218-5.428 c-1.336-2.198-2.448-4.599-3.215-6.943C 450.664,199.321, 450.285,197.615, 450.111,196.00L 456.00,196.00 l0.00,2.00 l 0.009,1.077 c 0.056,2.818, 0.439,9.471, 3.091,14.787C 458.96,213.735, 458.819,213.602, 458.677,213.464zM 516.00,196.00L 512.00,200.00L 520.00,200.00 zM 528.00,200.00L 524.00,196.00L 520.00,200.00 zM 528.00,200.00L 536.00,200.00L 532.00,196.00 zM 544.00,200.00L 540.00,196.00L 536.00,200.00 zM 532.00,196.00L 540.00,196.00L 538.00,194.00L 518.00,194.00L 516.00,196.00L 524.00,196.00 zM 528.00,222.00L 519.00,204.00L 524.40,204.00L 528.00,222.00L 531.60,204.00L 537.00,204.00L 528.00,222.00L 544.00,202.00L 512.00,202.00 zM 598.00,194.00L 588.00,204.00L 582.00,204.00 L 576.00,212.00c0.00,0.00, 6.357-1.77, 10.065-0.94L 576.00,224.00l 13.184-10.255C 591.023,217.953, 588.00,224.00, 588.00,224.00l 8.00-6.00 l0.00-6.00 l 10.00-10.00L 608.00,192.00L 598.00,194.00zM 656.00,200.00C 647.163,200.00, 640.00,207.163, 640.00,216.00l 2.00,0.00 c0.00-3.638, 1.619-6.898, 4.176-9.098l 6.776,8.47 c-0.042,0.203-0.063,0.413-0.063,0.628c0.00,1.718, 1.393,3.111, 3.111,3.111c 1.718,0.00, 3.111-1.393, 3.111-3.111 s-1.393-3.111-3.111-3.111c-0.215,0.00-0.425,0.022-0.628,0.064L 646.999,206.253c 1.97-1.418, 4.388-2.253, 7.001-2.253 c 6.627,0.00, 12.00,5.372, 12.00,12.00l 6.00,0.00 C 672.00,207.163, 664.837,200.00, 656.00,200.00zM 720.00,200.00C 711.163,200.00, 704.00,207.163, 704.00,216.00l 2.00,0.00 c0.00-6.627, 5.373-12.00, 12.00-12.00c 0.448,0.00, 0.89,0.025, 1.325,0.072l-1.037,9.329 c-0.843,0.556-1.40,1.512-1.40,2.599c0.00,1.718, 1.393,3.111, 3.111,3.111S 723.111,217.718, 723.111,216.00 c0.00-1.086-0.556-2.042-1.40-2.599l-1.011-9.096C 726.027,205.53, 730.00,210.301, 730.00,216.00l 6.00,0.00 C 736.00,207.163, 728.837,200.00, 720.00,200.00zM 794.00,216.00l 6.00,0.00 c0.00-8.837-7.163-16.00-16.00-16.00S 768.00,207.163, 768.00,216.00l 2.00,0.00 c0.00-6.627, 5.373-12.00, 12.00-12.00 c 3.526,0.00, 6.696,1.52, 8.891,3.941l-6.264,5.011c-0.203-0.042-0.413-0.064-0.628-0.064 c-1.718,0.00-3.111,1.393-3.111,3.111s 1.393,3.111, 3.111,3.111c 1.718,0.00, 3.111-1.393, 3.111-3.111 c0.00-0.215-0.022-0.425-0.063-0.628l 4.885-6.107C 793.238,211.186, 794.00,213.504, 794.00,216.00zM 848.00,192.00C 839.163,192.00, 832.00,199.163, 832.00,208.00s 7.163,16.00, 16.00,16.00s 16.00-7.163, 16.00-16.00S 856.837,192.00, 848.00,192.00z M 848.00,220.00 c-6.627,0.00-12.00-5.373-12.00-12.00c0.00-6.627, 5.373-12.00, 12.00-12.00c 6.627,0.00, 12.00,5.373, 12.00,12.00C 860.00,214.627, 854.627,220.00, 848.00,220.00zM 846.00,200.00A2.00,2.00 8280.00 1,0 850.00,200A2.00,2.00 8280.00 1,0 846.00,200zM 852.00,202.00A2.00,2.00 8280.00 1,0 856.00,202A2.00,2.00 8280.00 1,0 852.00,202zM 840.00,202.00A2.00,2.00 8280.00 1,0 844.00,202A2.00,2.00 8280.00 1,0 840.00,202zM 846.00,214.00L 846.00,216.00L 850.00,216.00L 850.00,214.00L 848.00,204.00 zM 906.031,224.00C 899.242,220.174, 897.455,216.552, 898.477,211.606c 0.754-3.652, 3.54-6.624, 3.777-10.27 c 1.055,1.92, 1.181,3.305, 1.298,5.312C 906.909,202.536, 910.389,197.033, 909.637,192.00c0.00,0.00, 8.363,4.00, 8.937,11.759 c 0.753-1.599, 0.753-4.139,0.00-5.785c 2.258,1.646, 15.851,16.26-1.411,26.027c 3.245-6.319, 0.837-14.845-4.798-18.783 c 0.376,1.693-0.094,6.114-2.587,8.889c 0.564-2.869-0.847-4.703-0.847-4.703s-0.463,2.597-2.258,5.221 C 905.035,217.019, 903.899,219.562, 906.031,224.00zM 989.884,217.14L 980.00,200.671L 980.00,194.00 l 1.00,0.00 c 0.55,0.00, 1.00-0.45, 1.00-1.00s-0.45-1.00-1.00-1.00L 971.00,192.00 c-0.55,0.00-1.00,0.45-1.00,1.00s 0.45,1.00, 1.00,1.00l 1.00,0.00 l0.00,6.671 L 962.116,217.14C 959.852,220.913, 961.60,224.00, 966.00,224.00l 20.00,0.00 C 990.40,224.00, 992.148,220.913, 989.884,217.14z M 967.532,212.00L 974.00,201.221L 974.00,194.00 l 4.00,0.00 l0.00,7.221 L 984.468,212.00L 967.532,212.00 zM 6.00,288.00L 26.00,288.00L 28.00,266.00L 4.00,266.00 zM 20.00,260.00L 20.00,256.00 L 12.00,256.00 l0.00,4.00 L 2.00,260.00 l0.00,6.00 l 2.00-2.00l 24.00,0.00 l 2.00,2.00L 30.00,260.00 L 20.00,260.00 z M 18.00,260.00l-4.00,0.00 L 14.00,258.00 l 4.00,0.00 L 18.00,260.00 zM 94.00,264.00L 86.00,264.00 L 86.00,262.00 c0.00-1.10-0.90-2.00-2.00-2.00L 76.00,260.00 c-1.10,0.00-2.00,0.90-2.00,2.00l0.00,2.00 L 66.00,264.00 C 64.90,264.00, 64.00,264.90, 64.00,266.00l0.00,16.00 c0.00,1.10, 0.90,2.00, 2.00,2.00l 28.00,0.00 c 1.10,0.00, 2.00-0.90, 2.00-2.00L 96.00,266.00 C 96.00,264.90, 95.10,264.00, 94.00,264.00z M 76.00,262.004 c 0.001-0.001, 0.002-0.003, 0.004-0.004l 7.993,0.00 c 0.001,0.001, 0.003,0.002, 0.004,0.004L 84.00,264.00 L 76.00,264.00 L 76.00,262.004 z M 94.00,272.00l-4.00,0.00 l0.00,3.00 c0.00,0.55-0.45,1.00-1.00,1.00l-2.00,0.00 c-0.55,0.00-1.00-0.45-1.00-1.00l0.00-3.00 L 74.00,272.00 l0.00,3.00 c0.00,0.55-0.45,1.00-1.00,1.00l-2.00,0.00 c-0.55,0.00-1.00-0.45-1.00-1.00l0.00-3.00 L 66.00,272.00 l0.00-2.00 l 28.00,0.00 L 94.00,272.00 zM 158.00,272.00c0.00,0.00-1.017-12.00-2.00-14.00S 148.00,256.00, 144.00,256.00S 132.982,256.00, 132.00,258.00S 130.00,272.00, 130.00,272.00l0.00,12.00 l 4.00,0.00 l0.00,2.00 c0.00,1.105, 0.895,2.00, 2.00,2.00 s 2.00-0.895, 2.00-2.00l0.00-2.00 l 12.00,0.00 l0.00,2.00 c0.00,1.105, 0.895,2.00, 2.00,2.00c 1.105,0.00, 2.00-0.895, 2.00-2.00l0.00-2.00 l 4.00,0.00 L 158.00,272.00 z M 138.00,258.00l 12.00,0.00 l0.00,2.00 L 138.00,260.00 L 138.00,258.00 z M 134.566,268.548c 0.38-3.333, 0.678-5.112, 0.865-6.029c 0.537-0.125, 1.45-0.28, 2.929-0.384C 140.281,262.00, 142.343,262.00, 144.00,262.00 s 3.719,0.00, 5.639,0.135c 1.479,0.104, 2.393,0.259, 2.929,0.384c 0.187,0.917, 0.485,2.696, 0.865,6.029 c 0.056,0.495, 0.11,0.982, 0.16,1.452L 134.406,270.00 C 134.456,269.53, 134.51,269.043, 134.566,268.548z M 136.00,278.90 c-1.602,0.00-2.90-1.298-2.90-2.90c0.00-1.602, 1.298-2.90, 2.90-2.90s 2.90,1.298, 2.90,2.90C 138.90,277.602, 137.602,278.90, 136.00,278.90z M 152.00,278.90c-1.602,0.00-2.90-1.298-2.90-2.90c0.00-1.602, 1.298-2.90, 2.90-2.90s 2.90,1.298, 2.90,2.90 C 154.90,277.602, 153.602,278.90, 152.00,278.90zM 208.00,258.00L 194.00,264.00L 208.00,270.00L 222.00,264.00 zM 194.00,282.00L 206.00,287.00L 206.00,273.00L 194.00,268.00 zM 210.00,287.00L 222.00,282.00L 222.00,268.00L 210.00,273.00 zM 271.00,258.00L 256.00,264.00l0.00,14.00 l 15.00,8.00l 15.00-8.00L 286.00,264.00 L 271.00,258.00z M 270.00,283.20L 258.00,276.80L 258.00,267.067 l 12.00,6.40L 270.00,283.20 z M 258.594,265.117L 271.00,260.154 l 12.406,4.963L 271.00,271.733L 258.594,265.117z M 284.00,276.80L 272.00,283.20L 272.00,273.467 l 12.00-6.40L 284.00,276.80 zM 349.948,264.008L 344.684,264.008 c-1.357-0.002-2.709-0.094-1.391-2.421c 1.321-2.331, 2.254-5.595-3.05-5.595 c-5.304,0.00-4.371,3.264-3.05,5.595c 1.319,2.327-0.034,2.418-1.391,2.421l-5.746,0.00 c-1.129,0.00-2.052,0.924-2.052,2.052 l0.00,6.387 c0.00,1.36, 0.369,2.72-1.962,1.399C 323.711,272.524, 320.00,271.592, 320.00,276.895c0.00,5.303, 3.711,4.371, 6.042,3.05 c 2.331-1.321, 1.962,0.039, 1.962,1.399l0.00,4.611 c0.00,1.129, 0.924,2.052, 2.052,2.052l 5.738,0.00 c 1.36,0.00, 2.72-0.544, 1.399-2.875 c-1.321-2.331-2.254-5.595, 3.05-5.595c 5.304,0.00, 4.371,3.264, 3.05,5.595c-1.321,2.331, 0.039,2.875, 1.399,2.875l 5.256,0.00 c 1.129,0.00, 2.052-0.924, 2.052-2.052L 352.00,266.06 C 352.00,264.931, 351.077,264.008, 349.948,264.008zM 384.00,264.00l0.00,16.00 l 10.00,0.00 l 6.00-6.00l 6.00,6.00l 10.00,0.00 L 416.00,264.00 L 384.00,264.00 z M 398.00,272.00l-4.00,4.00L 386.00,276.00 L 386.00,268.00 l 12.00,0.00 L 398.00,272.00 z M 414.00,276.00L 406.00,276.00 l-4.00-4.00l0.00-4.00 l 12.00,0.00 L 414.00,276.00 zM 470.00,258.00l0.00,3.00 l 5.00,9.00L 453.00,270.00 l 5.00-9.00L 458.00,258.00 L 448.00,270.00l0.00,16.00 l 10.00,0.00 l 6.00-6.00l 6.00,6.00l 10.00,0.00 L 480.00,270.00 L 470.00,258.00z M 462.00,278.00l-4.00,4.00L 450.00,282.00 L 450.00,274.00 l 12.00,0.00 L 462.00,278.00 z M 478.00,282.00L 470.00,282.00 l-4.00-4.00l0.00-4.00 l 12.00,0.00 L 478.00,282.00 zM 534.00,256.00L 516.00,274.00L 527.00,274.00L 522.00,288.00L 540.00,270.00L 529.00,270.00 zM 600.00,260.00l-4.00,0.00 L 596.00,258.00 c0.00-1.10-0.90-2.00-2.00-2.00l-4.00,0.00 c-1.10,0.00-2.00,0.90-2.00,2.00l0.00,2.00 l-4.00,0.00 l0.00,4.00 l 16.00,0.00 L 600.00,260.00 z M 594.00,260.00l-4.00,0.00 L 590.00,258.004 c 0.001-0.001, 0.002-0.002, 0.004-0.004l 3.993,0.00 c 0.001,0.001, 0.003,0.002, 0.004,0.004L 594.00,260.00 L 594.00,260.00zM 603.00,260.00l-2.00,0.00 l0.00,2.00 l 1.00,0.00 l0.00,24.00 L 582.00,286.00 L 582.00,262.00 l 1.00,0.00 L 583.00,260.00 L 581.00,260.00 c-0.55,0.00-1.00,0.45-1.00,1.00l0.00,26.00 c0.00,0.55, 0.45,1.00, 1.00,1.00l 22.00,0.00 c 0.55,0.00, 1.00-0.45, 1.00-1.00L 604.00,261.00 C 604.00,260.45, 603.55,260.00, 603.00,260.00zM 664.00,260.00l-4.00,0.00 L 660.00,258.00 c0.00-1.10-0.90-2.00-2.00-2.00l-4.00,0.00 c-1.10,0.00-2.00,0.90-2.00,2.00l0.00,2.00 l-4.00,0.00 l0.00,4.00 l 16.00,0.00 L 664.00,260.00 z M 658.00,260.00l-4.00,0.00 L 654.00,258.004 c 0.001-0.001, 0.002-0.002, 0.004-0.004l 3.993,0.00 c 0.001,0.001, 0.003,0.002, 0.004,0.004L 658.00,260.00 L 658.00,260.00zM 667.00,260.00l-2.00,0.00 l0.00,2.00 l 1.00,0.00 l0.00,24.00 L 646.00,286.00 L 646.00,262.00 l 1.00,0.00 L 647.00,260.00 L 645.00,260.00 c-0.55,0.00-1.00,0.45-1.00,1.00l0.00,26.00 c0.00,0.55, 0.45,1.00, 1.00,1.00l 22.00,0.00 c 0.55,0.00, 1.00-0.45, 1.00-1.00L 668.00,261.00 C 668.00,260.45, 667.55,260.00, 667.00,260.00zM 648.00,268.00L 664.00,268.00L 664.00,270.00L 648.00,270.00zM 648.00,274.00L 664.00,274.00L 664.00,276.00L 648.00,276.00zM 648.00,280.00L 664.00,280.00L 664.00,282.00L 648.00,282.00zM 704.00,256.00L 718.00,256.00L 718.00,270.00L 704.00,270.00zM 722.00,256.00L 736.00,256.00L 736.00,270.00L 722.00,270.00zM 704.00,274.00L 718.00,274.00L 718.00,288.00L 704.00,288.00zM 722.00,274.00L 736.00,274.00L 736.00,288.00L 722.00,288.00zM 800.00,276.548c0.00-2.565-1.771-4.716-4.156-5.296C 795.743,267.23, 792.455,264.00, 788.411,264.00 c-2.369,0.00-4.477,1.109-5.839,2.835c-0.764-0.987-1.959-1.624-3.303-1.624c-2.307,0.00-4.176,1.871-4.176,4.179 c0.00,0.201, 0.015,0.399, 0.043,0.592c-0.351-0.063-0.711-0.098-1.08-0.098C 770.71,269.885, 768.00,272.597, 768.00,275.942 C 768.00,279.288, 770.71,282.00, 774.054,282.00l 20.508,0.00 l0.00,0.00 C 797.567,281.994, 800.00,279.555, 800.00,276.548zM 859.844,267.252C 859.743,263.23, 856.455,260.00, 852.411,260.00c-2.369,0.00-4.477,1.109-5.839,2.835 c-0.764-0.987-1.959-1.624-3.303-1.624c-2.307,0.00-4.176,1.871-4.176,4.179c0.00,0.201, 0.015,0.399, 0.043,0.592 c-0.351-0.063-0.711-0.098-1.08-0.098C 834.71,265.885, 832.00,268.597, 832.00,271.942C 832.00,275.288, 834.71,278.00, 838.054,278.00l 3.118,0.00 L 848.00,284.828 L 854.828,278.00l 3.734,0.00 l0.00,0.00 C 861.567,277.994, 864.00,275.555, 864.00,272.548C 864.00,269.983, 862.229,267.833, 859.844,267.252z M 848.00,282.00l-6.00-6.00 l 4.00,0.00 l0.00-6.00 l 4.00,0.00 l0.00,6.00 l 4.00,0.00 L 848.00,282.00zM 924.00,278.00L 924.00,282.00L 900.00,282.00L 900.00,278.00L 896.00,278.00L 896.00,286.00L 928.00,286.00L 928.00,278.00 zM 920.00,268.00L 914.00,268.00L 914.00,258.00L 910.00,258.00L 910.00,268.00L 904.00,268.00L 912.00,280.00 zM 987.883,268.078C 987.96,267.731, 988.00,267.37, 988.00,267.00c0.00-2.761-2.239-5.00-5.00-5.00c-0.444,0.00-0.875,0.058-1.285,0.167 C 980.94,259.75, 978.674,258.00, 976.00,258.00c-2.73,0.00-5.033,1.823-5.76,4.318C 969.529,262.111, 968.778,262.00, 968.00,262.00C 963.582,262.00, 960.00,265.582, 960.00,270.00 c0.00,4.418, 3.582,8.00, 8.00,8.00l 4.00,0.00 l0.00,6.00 l 8.00,0.00 l0.00-6.00 l 7.00,0.00 c 2.761,0.00, 5.00-2.239, 5.00-5.00C 992.00,270.54, 990.223,268.495, 987.883,268.078z M 978.00,276.00l0.00,6.00 l-4.00,0.00 l0.00-6.00 l-5.00,0.00 l 7.00-7.00l 7.00,7.00L 978.00,276.00 zM 28.00,342.00L 28.00,346.00L 4.00,346.00L 4.00,342.00L0.00,342.00L0.00,350.00L 32.00,350.00L 32.00,342.00 zM 8.00,334.00L 14.00,334.00L 14.00,344.00L 18.00,344.00L 18.00,334.00L 24.00,334.00L 16.00,322.00 zM 74.00,342.00c 0.55,0.55, 1.477,0.523, 2.061-0.061L 85.939,332.061C 86.523,331.477, 86.55,330.55, 86.00,330.00 s-1.477-0.523-2.061,0.061L 74.061,339.939C 73.477,340.523, 73.45,341.45, 74.00,342.00zM 78.903,341.097c 0.142,0.283, 0.218,0.599, 0.218,0.928c0.00,0.55-0.211,1.064-0.594,1.447l-5.106,5.106 c-0.383,0.383-0.897,0.594-1.447,0.594s-1.064-0.211-1.447-0.594l-3.106-3.106c-0.383-0.383-0.594-0.897-0.594-1.447 s 0.211-1.064, 0.594-1.447l 5.106-5.106c 0.383-0.383, 0.897-0.594, 1.447-0.594c 0.329,0.00, 0.645,0.076, 0.928,0.218l 2.042-2.042 c-0.871-0.669-1.92-1.005-2.97-1.005c-1.25,0.00-2.499,0.474-3.447,1.422l-5.106,5.106 c-1.896,1.896-1.896,4.998,0.00,6.894l 3.106,3.106C 69.476,351.526, 70.725,352.00, 71.975,352.00 c 1.25,0.00, 2.499-0.474, 3.447-1.422l 5.106-5.106c 1.744-1.744, 1.882-4.509, 0.417-6.417L 78.903,341.097zM 94.578,324.528l-3.106-3.106C 90.524,320.474, 89.275,320.00, 88.025,320.00c-1.25,0.00-2.499,0.474-3.447,1.422l-5.106,5.106 c-1.744,1.744-1.882,4.509-0.417,6.417l 2.042-2.042c-0.142-0.283-0.218-0.599-0.218-0.928c0.00-0.55, 0.211-1.064, 0.594-1.447 l 5.106-5.106c 0.383-0.383, 0.897-0.594, 1.447-0.594s 1.064,0.211, 1.447,0.594l 3.106,3.106 c 0.383,0.383, 0.594,0.897, 0.594,1.447s-0.211,1.064-0.594,1.447l-5.106,5.106c-0.383,0.383-0.897,0.594-1.447,0.594 c-0.329,0.00-0.645-0.076-0.928-0.218l-2.042,2.042c 0.871,0.669, 1.92,1.005, 2.97,1.005c 1.25,0.00, 2.499-0.474, 3.447-1.422 l 5.106-5.106C 96.474,329.526, 96.474,326.424, 94.578,324.528zM 142.903,341.097c 0.142,0.283, 0.218,0.599, 0.218,0.928c0.00,0.55-0.211,1.064-0.594,1.447l-5.106,5.106 c-0.383,0.383-0.897,0.594-1.447,0.594s-1.064-0.211-1.447-0.594l-3.106-3.106c-0.383-0.383-0.594-0.897-0.594-1.447 s 0.211-1.064, 0.594-1.447l 5.106-5.106c 0.383-0.383, 0.897-0.594, 1.447-0.594c 0.329,0.00, 0.645,0.076, 0.928,0.218l 2.042-2.042 c-0.871-0.669-1.92-1.005-2.97-1.005c-1.25,0.00-2.499,0.474-3.447,1.422l-5.106,5.106 c-1.896,1.896-1.896,4.998,0.00,6.894l 3.106,3.106c 0.948,0.948, 2.197,1.422, 3.447,1.422 c 1.25,0.00, 2.499-0.474, 3.447-1.422l 5.106-5.106c 1.744-1.744, 1.882-4.509, 0.417-6.417L 142.903,341.097zM 158.578,324.528l-3.106-3.106C 154.524,320.474, 153.275,320.00, 152.025,320.00c-1.25,0.00-2.499,0.474-3.447,1.422l-5.106,5.106 c-1.744,1.744-1.882,4.509-0.417,6.417l 2.042-2.042c-0.142-0.283-0.218-0.599-0.218-0.928c0.00-0.55, 0.211-1.064, 0.594-1.447 l 5.106-5.106c 0.383-0.383, 0.897-0.594, 1.447-0.594c 0.55,0.00, 1.064,0.211, 1.447,0.594l 3.106,3.106 c 0.383,0.383, 0.594,0.897, 0.594,1.447c0.00,0.55-0.211,1.064-0.594,1.447l-5.106,5.106c-0.383,0.383-0.897,0.594-1.447,0.594 c-0.329,0.00-0.645-0.076-0.928-0.218l-2.042,2.042c 0.871,0.669, 1.92,1.005, 2.97,1.005c 1.25,0.00, 2.499-0.474, 3.447-1.422 l 5.106-5.106C 160.474,329.526, 160.474,326.424, 158.578,324.528zM 135.293,328.707L 129.293,322.707L 130.707,321.293L 136.707,327.293zM 140.00,320.00L 142.00,320.00L 142.00,326.00L 140.00,326.00zM 128.00,332.00L 134.00,332.00L 134.00,334.00L 128.00,334.00zM 152.707,343.293L 158.707,349.293L 157.293,350.707L 151.293,344.707zM 146.00,346.00L 148.00,346.00L 148.00,352.00L 146.00,352.00zM 154.00,338.00L 160.00,338.00L 160.00,340.00L 154.00,340.00zM 219.019,320.196L 210.981,321.804C 210.441,321.912, 210.00,321.55, 210.00,321.00S 209.559,320.088, 209.019,320.196L 200.00,322.00L 200.00,320.00 L 196.00,320.00 l0.00,32.00 l 4.00,0.00 L 200.00,336.00 l 9.019-1.804C 209.559,334.088, 210.00,334.45, 210.00,335.00s 0.441,0.912, 0.981,0.804l 8.039-1.608C 219.559,334.088, 220.00,333.55, 220.00,333.00L 220.00,321.00 C 220.00,320.45, 219.559,320.088, 219.019,320.196zM 271.879,323.814C 268.868,320.236, 266.586,320.00, 262.00,320.00l0.00,16.00 c 8.017-4.00, 8.915,0.521, 13.969,0.064 C 280.952,335.613, 285.189,331.777, 288.00,328.00C 280.04,329.841, 276.034,328.751, 271.879,323.814zM 256.00,320.00L 260.00,320.00L 260.00,352.00L 256.00,352.00zM 341.807,330.22l-2.03-2.029L 329.627,338.34c-1.682,1.681-1.682,4.408,0.00,6.089 c 1.681,1.681, 4.408,1.681, 6.09,0.00l 12.18-12.178c 2.804-2.802, 2.804-7.346,0.00-10.148 c-2.802-2.803-7.347-2.803-10.149,0.00L 324.958,334.888l 0.001,0.001c-0.009,0.009-0.019,0.018-0.027,0.026 c-3.909,3.909-3.909,10.245,0.00,14.153c 3.908,3.908, 10.246,3.908, 14.156,0.00c 0.009-0.009, 0.016-0.018, 0.026-0.027l 0.001,0.001 l 8.729-8.728l-2.031-2.029L 337.084,347.013l-0.001,0.00 c-0.009,0.008-0.018,0.018-0.026,0.026 c-2.784,2.783-7.312,2.783-10.096,0.00c-2.783-2.783-2.783-7.31,0.00-10.093c 0.009-0.009, 0.019-0.018, 0.028-0.026l-0.001-0.002 l 12.79-12.786c 1.679-1.679, 4.411-1.679, 6.09,0.00c 1.679,1.679, 1.679,4.411,0.00,6.089L 333.687,342.398 c-0.56,0.56-1.47,0.56-2.03,0.00c-0.559-0.559-0.559-1.47,0.00-2.029L 341.807,330.22zM 400.00,327.00C 392.00,327.00, 384.00,334.00, 384.00,336.00l0.00,0.00c 0.00,2.00, 8.00,9.00, 16.00,9.00s 16.00-7.00, 16.00-9.00l0.00,0.00 C 416.00,334.00, 408.00,327.00, 400.00,327.00z M 400.00,342.00c-3.314,0.00-6.00-2.686-6.00-6.00c0.00-3.314, 2.686-6.00, 6.00-6.00c 3.314,0.00, 6.00,2.686, 6.00,6.00 C 406.00,339.314, 403.314,342.00, 400.00,342.00zM 398.00,336.00A2.00,2.00 10080.00 1,0 402.00,336A2.00,2.00 10080.00 1,0 398.00,336zM 464.00,326.00C 457.021,326.00, 450.972,330.064, 448.00,336.00c 2.972,5.936, 9.021,10.00, 16.00,10.00c 6.979,0.00, 13.027-4.064, 16.00-10.00 C 477.028,330.064, 470.979,326.00, 464.00,326.00z M 464.00,338.887c-1.594,0.00-2.887-1.293-2.887-2.887s 1.293-2.887, 2.887-2.887 s 2.887,1.293, 2.887,2.887C 466.887,337.594, 465.594,338.887, 464.00,338.887z M 455.573,341.54 C 453.394,340.15, 451.577,338.248, 450.272,336.00c 1.305-2.248, 3.122-4.15, 5.301-5.54c 1.238-0.79, 2.574-1.40, 3.97-1.815 c 0.702-0.208, 1.418-0.366, 2.143-0.474C 458.305,329.169, 455.838,332.296, 455.838,336.00c0.00,3.704, 2.468,6.831, 5.848,7.829 c-0.725-0.108-1.441-0.266-2.143-0.474C 458.147,342.94, 456.811,342.33, 455.573,341.54z M 472.427,341.54 c-1.238,0.79-2.574,1.40-3.97,1.815c-0.702,0.208-1.418,0.366-2.143,0.474C 469.695,342.831, 472.163,339.704, 472.163,336.00 c0.00-3.704-2.468-6.831-5.848-7.829c 0.725,0.108, 1.441,0.266, 2.143,0.474c 1.396,0.415, 2.732,1.026, 3.97,1.815 c 2.179,1.39, 3.996,3.292, 5.301,5.54C 476.423,338.248, 474.606,340.15, 472.427,341.54zM 518.00,320.00L 518.00,352.00L 528.00,342.00L 538.00,352.00L 538.00,320.00 zM 582.00,320.00l0.00,32.00 l 10.00-10.00l 10.00,10.00L 602.00,320.00 L 582.00,320.00 z M 600.00,347.172l-8.00-8.00l-8.00,8.00L 584.00,322.00 l 16.00,0.00 L 600.00,347.172 zM 656.00,326.848l 1.875,5.771l 0.449,1.382l 1.453,0.00 l 6.068,0.00 l-4.909,3.566l-1.176,0.854l 0.449,1.382l 1.875,5.771 l-4.909-3.566L 656.00,341.153l-1.176,0.854l-4.909,3.566l 1.875-5.771l 0.449-1.382l-1.176-0.854l-4.909-3.566l 6.068,0.00 l 1.453,0.00 L 654.125,332.618L 656.00,326.848 M 656.00,320.376l-3.777,11.625L 640.00,332.00 l 9.889,7.184L 646.111,350.809L 656.00,343.625l 9.889,7.184l-3.777-11.625 L 672.00,332.00L 659.777,332.00 L 656.00,320.376L 656.00,320.376zM 736.00,332.00L 723.777,332.00 L 720.00,320.376l-3.777,11.625L 704.00,332.00 l 9.889,7.184L 710.111,350.809L 720.00,343.625l 9.889,7.184l-3.777-11.625 L 736.00,332.00z M 720.00,341.153L 720.00,326.848 l 2.324,7.152l 7.521,0.00 l-6.084,4.421l 2.324,7.152L 720.00,341.153zM 800.00,332.00L 787.777,332.00L 784.00,320.376L 780.223,332.00L 768.00,332.00L 777.889,339.185L 774.111,350.809L 784.00,343.625L 793.889,350.809L 790.111,339.185 zM 861.51,324.49c-3.319-3.319-8.701-3.319-12.021,0.00c-0.608,0.608-1.104,1.286-1.49,2.007 c-0.385-0.721-0.881-1.399-1.49-2.007c-3.319-3.319-8.701-3.319-12.021,0.00c-3.319,3.319-3.319,8.701,0.00,12.021 L 848.00,350.00l 13.51-13.49C 864.83,333.191, 864.83,327.809, 861.51,324.49zM 919.50,324.00c 1.736,0.00, 3.369,0.676, 4.596,1.904c 2.534,2.534, 2.534,6.658, 0.001,9.191L 912.00,347.174L 899.904,335.096 c-2.534-2.534-2.534-6.658,0.00-9.192C 901.131,324.676, 902.764,324.00, 904.50,324.00c 1.736,0.00, 3.369,0.676, 4.596,1.904 c 0.456,0.456, 0.839,0.972, 1.14,1.535L 912.00,330.74l 1.764-3.302c 0.301-0.563, 0.684-1.079, 1.14-1.535 C 916.131,324.676, 917.764,324.00, 919.50,324.00 M 919.50,322.00c-2.175,0.00-4.351,0.83-6.01,2.49c-0.608,0.608-1.104,1.286-1.49,2.007 c-0.385-0.721-0.881-1.399-1.49-2.007C 908.851,322.83, 906.675,322.00, 904.50,322.00c-2.175,0.00-4.351,0.83-6.01,2.49 c-3.319,3.319-3.319,8.701,0.00,12.021L 912.00,350.00l 13.51-13.49c 3.319-3.319, 3.319-8.701,0.00-12.021 C 923.851,322.83, 921.675,322.00, 919.50,322.00L 919.50,322.00zM 987.884,342.662c 0.053-0.632, 1.372-1.499, 1.371-2.132c-0.003-0.665-1.155-1.778-1.068-2.438 c 0.069-0.523, 1.035-1.30, 1.066-1.828c 0.056-0.96-1.241-2.837-2.132-3.198c-1.415-0.573-8.607-0.305-8.607-0.305 c-0.703-1.228, 1.252-4.263, 1.79-5.573c 0.789-1.92, 0.656-4.467-0.342-5.775C 978.742,319.814, 976.504,319.708, 976.458,320.423 c-0.334,5.188-1.327,6.628-2.657,7.653c-0.799,0.616-1.497,1.156-1.866,2.095 c-2.266,5.772-4.095,7.627-4.971,7.828L 964.00,338.00 l0.00,12.43 l 9.108,1.219c0.00,0.00, 8.341,0.789, 10.968,0.00 c 0.826-0.248, 2.252-1.489, 2.59-2.285c 0.192-0.457-0.075-1.539, 0.153-1.98c 0.336-0.654, 1.753-1.472, 1.752-2.361 C 988.568,344.39, 987.83,343.294, 987.884,342.662zM 29.253,399.735c-0.031-0.528-0.997-1.303-1.066-1.827c-0.087-0.659, 1.065-1.773, 1.067-2.438 c 0.001-0.634-1.317-1.50-1.371-2.133c-0.054-0.631, 0.685-1.728, 0.686-2.361c 0.002-0.888-1.416-1.707-1.752-2.361 c-0.227-0.441, 0.04-1.523-0.153-1.98c-0.337-0.796-1.763-2.037-2.588-2.285c-2.627-0.789-10.968,0.00-10.968,0.00L 4.00,385.569 L 4.00,398.00 l 2.965,0.00 c 0.875,0.486, 2.704,2.018, 4.97,7.79c 0.369,0.94, 1.067,1.518, 1.866,2.134 c 1.33,1.025, 2.322,2.465, 2.656,7.654c 0.046,0.715, 2.285,0.609, 3.504-0.99c 0.998-1.308, 1.132-3.855, 0.343-5.775 c-0.538-1.31-2.493-4.344-1.79-5.573c0.00,0.00, 7.192,0.268, 8.606-0.304C 28.012,402.574, 29.309,400.695, 29.253,399.735zM 80.00,384.00C 71.163,384.00, 64.00,391.163, 64.00,400.00s 7.163,16.00, 16.00,16.00s 16.00-7.163, 16.00-16.00S 88.837,384.00, 80.00,384.00z M 82.00,402.00l0.00,10.00 l-4.00,0.00 L 78.00,402.00 L 68.00,402.00 l0.00-4.00 l 10.00,0.00 L 78.00,388.00 l 4.00,0.00 l0.00,10.00 l 10.00,0.00 l0.00,4.00 L 82.00,402.00 zM 144.00,384.00C 135.163,384.00, 128.00,391.163, 128.00,400.00s 7.163,16.00, 16.00,16.00s 16.00-7.163, 16.00-16.00S 152.837,384.00, 144.00,384.00z M 132.00,402.00l0.00-4.00 l 24.00,0.00 l0.00,4.00 L 132.00,402.00 zM 208.00,384.00C 199.163,384.00, 192.00,391.163, 192.00,400.00s 7.163,16.00, 16.00,16.00s 16.00-7.163, 16.00-16.00S 216.837,384.00, 208.00,384.00z M 208.00,412.00 c-1.657,0.00-3.00-1.343-3.00-3.00s 1.343-3.00, 3.00-3.00s 3.00,1.343, 3.00,3.00S 209.657,412.00, 208.00,412.00z M 215.004,395.064 c-0.156,0.528-0.372,1.029-0.65,1.50c-0.278,0.473-0.612,0.921-1.001,1.342c-0.389,0.423-0.816,0.829-1.284,1.218 c-0.523,0.433-0.943,0.817-1.259,1.151c-0.316,0.333-0.53,0.623-0.642,0.867c-0.209,0.448-0.366,1.523-0.168,2.857l-3.997,0.00 c-0.033-2.371, 0.316-3.531, 0.731-4.391c 0.423-0.868, 1.211-1.785, 2.368-2.752c 0.501-0.41, 0.89-0.775, 1.167-1.092 c 0.278-0.317, 0.49-0.60, 0.634-0.85c 0.144-0.25, 0.233-0.483, 0.267-0.701c 0.033-0.216, 0.05-0.441, 0.05-0.675 c0.00-0.434-0.075-0.834-0.225-1.20c-0.15-0.368-0.364-0.684-0.641-0.95c-0.279-0.268-0.606-0.476-0.984-0.626 c-0.378-0.15-0.80-0.226-1.267-0.226c-1.823,0.00-2.935,1.273-3.335,3.819l-4.002,0.00 c 0.10-1.09, 0.347-2.076, 0.742-2.96 c 0.395-0.884, 0.911-1.634, 1.551-2.252c 0.639-0.617, 1.384-1.092, 2.235-1.425c 0.85-0.334, 1.776-0.501, 2.776-0.501 c 1.067,0.00, 2.04,0.153, 2.918,0.458c 0.879,0.306, 1.631,0.732, 2.259,1.276c 0.629,0.545, 1.117,1.195, 1.468,1.951 c 0.349,0.756, 0.526,1.579, 0.526,2.468C 215.238,393.972, 215.159,394.536, 215.004,395.064zM 272.00,384.00C 263.163,384.00, 256.00,391.163, 256.00,400.00s 7.163,16.00, 16.00,16.00s 16.00-7.163, 16.00-16.00S 280.837,384.00, 272.00,384.00z M 280.556,405.445 c 0.428,0.428, 0.428,1.128,0.00,1.556l-1.556,1.556c-0.428,0.428-1.128,0.428-1.556,0.00L 272.00,403.111l-5.445,5.445 c-0.428,0.428-1.128,0.428-1.556,0.00l-1.556-1.556c-0.428-0.428-0.428-1.128,0.00-1.556L 268.889,400.00l-5.445-5.445 c-0.428-0.428-0.428-1.128,0.00-1.556l 1.556-1.556c 0.428-0.428, 1.128-0.428, 1.556,0.00L 272.00,396.889l 5.445-5.445 c 0.428-0.428, 1.128-0.428, 1.556,0.00l 1.556,1.556c 0.428,0.428, 0.428,1.128,0.00,1.556L 275.111,400.00L 280.556,405.445zM 351.708,409.708c0.00,0.000.00,0.000.00,0.00L 342.00,400.00l 9.708-9.708c 0.00,0.00, 0.00,0.00, 0.00,0.00 c 0.104-0.105, 0.18-0.227, 0.229-0.357c 0.133-0.355, 0.057-0.771-0.229-1.057L 347.122,384.292c-0.286-0.286-0.702-0.361-1.057-0.229 c-0.13,0.048-0.252,0.124-0.357,0.228c0.00,0.000.00,0.000.00,0.00L 336.00,394.00L 326.292,384.292 c0.00,0.000.00,0.000.00,0.00c-0.105-0.104-0.227-0.18-0.357-0.228c-0.356-0.133-0.771-0.057-1.057,0.229L 320.292,388.878 c-0.286,0.286-0.361,0.702-0.229,1.057c 0.049,0.13, 0.124,0.252, 0.229,0.357c 0.00,0.00, 0.00,0.00, 0.00,0.00L 330.00,400.00 L 320.292,409.708c0.00,0.000.00,0.000.00,0.00c-0.104,0.105-0.18,0.227-0.229,0.357c-0.133,0.355-0.057,0.771, 0.229,1.057 l 4.586,4.586c 0.286,0.286, 0.702,0.361, 1.057,0.229c 0.13-0.049, 0.252-0.124, 0.357-0.229c 0.00,0.00, 0.00,0.00, 0.00,0.00 l 9.708-9.708l 9.708,9.708c 0.00,0.00, 0.00,0.00, 0.00,0.00c 0.105,0.104, 0.227,0.18, 0.357,0.229 c 0.356,0.133, 0.771,0.057, 1.057-0.229l 4.586-4.586c 0.286-0.286, 0.362-0.702, 0.229-1.057 C 351.888,409.935, 351.813,409.813, 351.708,409.708zM 411.00,387.00L 396.00,402.00L 389.00,395.00L 384.00,400.00L 396.00,412.00L 416.00,392.00 zM 448.00,397.00l0.00,6.00 c0.00,0.552, 0.448,1.00, 1.00,1.00l 30.00,0.00 c 0.552,0.00, 1.00-0.448, 1.00-1.00l0.00-6.00 c0.00-0.552-0.448-1.00-1.00-1.00L 449.00,396.00 C 448.448,396.00, 448.00,396.448, 448.00,397.00zM 543.00,396.00L 532.00,396.00 L 532.00,385.00 c0.00-0.552-0.448-1.00-1.00-1.00l-6.00,0.00 c-0.552,0.00-1.00,0.448-1.00,1.00l0.00,11.00 L 513.00,396.00 c-0.552,0.00-1.00,0.448-1.00,1.00l0.00,6.00 c0.00,0.552, 0.448,1.00, 1.00,1.00l 11.00,0.00 l0.00,11.00 c0.00,0.552, 0.448,1.00, 1.00,1.00l 6.00,0.00 c 0.552,0.00, 1.00-0.448, 1.00-1.00L 532.00,404.00 l 11.00,0.00 c 0.552,0.00, 1.00-0.448, 1.00-1.00l0.00-6.00 C 544.00,396.448, 543.552,396.00, 543.00,396.00zM 604.00,386.00L 582.00,386.00 c-1.10,0.00-2.00,0.90-2.00,2.00l0.00,8.00 l 4.00,0.00 L 584.00,390.00 l 18.00,0.00 l0.00,22.00 L 584.00,412.00 l0.00-6.00 L 580.00,406.00 l0.00,8.00 c0.00,1.10, 0.90,2.00, 2.00,2.00l 22.00,0.00 c 1.10,0.00, 2.00-0.90, 2.00-2.00L 606.00,388.00 C 606.00,386.90, 605.10,386.00, 604.00,386.00zM 588.00,410.00L 597.00,401.00L 588.00,392.00L 588.00,398.00L 576.00,398.00L 576.00,404.00L 588.00,404.00 zM 671.00,401.00L 662.00,392.00L 662.00,398.00L 650.00,398.00L 650.00,404.00L 662.00,404.00L 662.00,410.00 zM 666.00,390.00L 666.00,388.00 c0.00-1.10-0.90-2.00-2.00-2.00L 642.00,386.00 C 640.90,386.00, 640.00,386.90, 640.00,388.00l0.00,26.00 c0.00,1.10, 0.90,2.00, 2.00,2.00l 22.00,0.00 c 1.10,0.00, 2.00-0.90, 2.00-2.00l0.00-2.00 L 644.00,412.00 L 644.00,390.00 L 666.00,390.00 zM 714.00,404.00L 714.00,398.00L 720.00,398.00L 712.00,390.00L 704.00,398.00L 710.00,398.00L 710.00,408.00L 722.00,408.00L 718.00,404.00 zM 730.00,402.00L 730.00,392.00L 718.00,392.00L 722.00,396.00L 726.00,396.00L 726.00,402.00L 720.00,402.00L 728.00,410.00L 736.00,402.00 zM 776.00,398.00L 776.00,402.00L 782.00,396.00L 782.00,408.00L 786.00,408.00L 786.00,396.00L 792.00,402.00L 792.00,398.00L 784.00,390.00 zM 768.00,400.00c0.00,8.836, 7.163,16.00, 16.00,16.00c 8.837,0.00, 16.00-7.163, 16.00-16.00c 0.00-8.837-7.163-16.00-16.00-16.00 S 768.00,391.163, 768.00,400.00z M 798.00,400.00C 798.00,407.732, 791.732,414.00, 784.00,414.00C 776.268,414.00, 770.00,407.732, 770.00,400.00c0.00-7.732, 6.268-14.00, 14.00-14.00 S 798.00,392.268, 798.00,400.00zM 850.00,392.00L 846.00,392.00L 852.00,398.00L 840.00,398.00L 840.00,402.00L 852.00,402.00L 846.00,408.00L 850.00,408.00L 858.00,400.00 zM 848.00,384.00C 839.163,384.00, 832.00,391.163, 832.00,400.00s 7.163,16.00, 16.00,16.00s 16.00-7.163, 16.00-16.00S 856.837,384.00, 848.00,384.00z M 848.00,414.00 C 840.268,414.00, 834.00,407.732, 834.00,400.00S 840.268,386.00, 848.00,386.00s 14.00,6.268, 14.00,14.00S 855.732,414.00, 848.00,414.00zM 920.00,402.00L 920.00,398.00L 914.00,404.00L 914.00,392.00L 910.00,392.00L 910.00,404.00L 904.00,398.00L 904.00,402.00L 912.00,410.00 zM 928.00,400.00C 928.00,391.163, 920.837,384.00, 912.00,384.00S 896.00,391.163, 896.00,400.00s 7.163,16.00, 16.00,16.00S 928.00,408.837, 928.00,400.00z M 898.00,400.00 C 898.00,392.268, 904.268,386.00, 912.00,386.00s 14.00,6.268, 14.00,14.00S 919.732,414.00, 912.00,414.00S 898.00,407.732, 898.00,400.00zM 974.00,408.00L 978.00,408.00L 972.00,402.00L 984.00,402.00L 984.00,398.00L 972.00,398.00L 978.00,392.00L 974.00,392.00L 966.00,400.00 zM 976.00,416.00c 8.837,0.00, 16.00-7.163, 16.00-16.00S 984.837,384.00, 976.00,384.00C 967.163,384.00, 960.00,391.163, 960.00,400.00C 960.00,408.837, 967.163,416.00, 976.00,416.00z M 976.00,386.00c 7.732,0.00, 14.00,6.268, 14.00,14.00S 983.732,414.00, 976.00,414.00S 962.00,407.732, 962.00,400.00C 962.00,392.268, 968.268,386.00, 976.00,386.00zM 24.00,462.00L 16.00,454.00L 8.00,462.00 zM 8.00,468.00L 16.00,476.00L 24.00,468.00 zM 74.00,454.00L 64.00,464.00l 10.00,10.00l 22.00,0.00 L 96.00,454.00 L 74.00,454.00 z M 94.00,472.00L 74.828,472.00 l-8.00-8.00l 8.00-8.00L 94.00,456.00 L 94.00,472.00 zM 82.00,470.00L 86.00,466.00L 90.00,470.00L 92.00,468.00L 88.00,464.00L 92.00,460.00L 90.00,458.00L 86.00,462.00L 82.00,458.00L 80.00,460.00L 84.00,464.00L 80.00,468.00 zM 138.00,454.00L 128.00,464.00l 10.00,10.00l 22.00,0.00 L 160.00,454.00 L 138.00,454.00 z M 157.32,468.88l-2.44,2.44L 150.00,466.44l-4.88,4.88l-2.44-2.44L 147.56,464.00 l-4.88-4.88l 2.44-2.44L 150.00,461.56l 4.88-4.88l 2.44,2.44L 152.44,464.00L 157.32,468.88zM 192.00,448.00l0.00,32.00 l 32.00,0.00 L 224.00,448.00 L 192.00,448.00 z M 222.00,478.00L 194.00,478.00 L 194.00,450.00 l 28.00,0.00 L 222.00,478.00 zM 216.00,456.00L 206.00,466.00L 200.00,460.00L 196.00,464.00L 206.00,474.00L 220.00,460.00 zM 256.00,448.00l0.00,32.00 l 32.00,0.00 L 288.00,448.00 L 256.00,448.00 z M 286.00,478.00L 258.00,478.00 L 258.00,450.00 l 28.00,0.00 L 286.00,478.00 zM 336.00,448.00C 327.163,448.00, 320.00,455.163, 320.00,464.00s 7.163,16.00, 16.00,16.00s 16.00-7.163, 16.00-16.00S 344.837,448.00, 336.00,448.00z M 336.00,476.00 c-6.627,0.00-12.00-5.373-12.00-12.00c0.00-6.627, 5.373-12.00, 12.00-12.00c 6.627,0.00, 12.00,5.373, 12.00,12.00C 348.00,470.627, 342.627,476.00, 336.00,476.00zM 330.00,464.00A6.00,6.00 10080.00 1,0 342.00,464A6.00,6.00 10080.00 1,0 330.00,464zM 400.00,448.00C 391.163,448.00, 384.00,455.163, 384.00,464.00s 7.163,16.00, 16.00,16.00s 16.00-7.163, 16.00-16.00S 408.837,448.00, 400.00,448.00z M 400.00,476.00 c-6.627,0.00-12.00-5.373-12.00-12.00c0.00-6.627, 5.373-12.00, 12.00-12.00c 6.627,0.00, 12.00,5.373, 12.00,12.00C 412.00,470.627, 406.627,476.00, 400.00,476.00zM 472.987,448.506C 470.158,448.506, 468.343,448.00, 465.43,448.00C 456.014,448.00, 451.624,453.362, 451.624,458.809 c0.00,3.209, 1.52,4.264, 4.518,4.264c-0.211-0.465-0.591-0.971-0.591-3.251c0.00-6.375, 2.406-8.233, 5.489-8.36 c0.00,0.00-2.529,24.793-9.868,27.767L 451.171,480.00 l 5.272,0.00 l 4.621,0.00 l 3.376-16.00l 6.183,0.00 L 472.00,460.00L 465.284,460.00 l 1.623-7.693 c 1.858,0.38, 3.673,0.76, 5.235,0.76c 1.942,0.00, 3.715-0.591, 4.686-5.066C 475.647,448.38, 474.38,448.506, 472.987,448.506zM 512.00,454.00L 544.00,454.00L 544.00,456.00L 512.00,456.00zM 512.00,458.00L 534.00,458.00L 534.00,460.00L 512.00,460.00zM 512.00,462.00L 544.00,462.00L 544.00,464.00L 512.00,464.00zM 512.00,466.00L 534.00,466.00L 534.00,468.00L 512.00,468.00zM 512.00,470.00L 544.00,470.00L 544.00,472.00L 512.00,472.00zM 512.00,474.00L 534.00,474.00L 534.00,476.00L 512.00,476.00zM 576.00,454.00L 608.00,454.00L 608.00,456.00L 576.00,456.00zM 582.00,458.00L 602.00,458.00L 602.00,460.00L 582.00,460.00zM 582.00,466.00L 602.00,466.00L 602.00,468.00L 582.00,468.00zM 582.00,474.00L 602.00,474.00L 602.00,476.00L 582.00,476.00zM 576.00,462.00L 608.00,462.00L 608.00,464.00L 576.00,464.00zM 576.00,470.00L 608.00,470.00L 608.00,472.00L 576.00,472.00zM 640.00,454.00L 672.00,454.00L 672.00,456.00L 640.00,456.00zM 650.00,458.00L 672.00,458.00L 672.00,460.00L 650.00,460.00zM 640.00,462.00L 672.00,462.00L 672.00,464.00L 640.00,464.00zM 650.00,466.00L 672.00,466.00L 672.00,468.00L 650.00,468.00zM 640.00,470.00L 672.00,470.00L 672.00,472.00L 640.00,472.00zM 650.00,474.00L 672.00,474.00L 672.00,476.00L 650.00,476.00zM 704.00,458.00L 736.00,458.00L 736.00,460.00L 704.00,460.00zM 704.00,466.00L 736.00,466.00L 736.00,468.00L 704.00,468.00zM 704.00,474.00L 736.00,474.00L 736.00,476.00L 704.00,476.00zM 704.00,454.00L 736.00,454.00L 736.00,456.00L 704.00,456.00zM 704.00,462.00L 736.00,462.00L 736.00,464.00L 704.00,464.00zM 704.00,470.00L 736.00,470.00L 736.00,472.00L 704.00,472.00zM 776.00,468.00c0.00,0.00, 1.838-6.00, 12.00-6.00l0.00,6.00 l 12.00-8.00L 788.00,452.00l0.00,6.00 C 780.00,458.00, 776.00,462.99, 776.00,468.00zM 790.00,472.00L 772.00,472.00 L 772.00,460.00 l 3.934,0.00 c 0.315-0.372, 0.653-0.729, 1.015-1.068c 1.374-1.287, 3.018-2.27, 4.879-2.932L 768.00,456.00 l0.00,20.00 l 26.00,0.00 L 794.00,467.605 l-4.00,2.667L 790.00,472.00 zM 852.00,450.00L 856.00,454.00L 842.00,468.00L 844.00,470.00L 858.00,456.00L 862.00,460.00L 862.00,450.00 zM 854.00,474.00L 838.00,474.00L 838.00,458.00L 846.00,458.00L 850.00,454.00L 834.00,454.00L 834.00,478.00L 858.00,478.00L 858.00,462.00L 854.00,466.00 zM 922.666,448.00L 901.334,448.00 C 898.40,448.00, 896.00,450.40, 896.00,453.333l0.00,21.333 C 896.00,477.60, 898.40,480.00, 901.334,480.00l 21.332,0.00 C 925.602,480.00, 928.00,477.60, 928.00,474.666L 928.00,453.333 C 928.00,450.40, 925.602,448.00, 922.666,448.00z M 904.00,456.00l 16.00,0.00 c 0.286,0.00, 0.563,0.061, 0.817,0.177 L 912.00,466.463L 903.183,456.177C 903.437,456.061, 903.714,456.00, 904.00,456.00z M 902.00,470.00L 902.00,458.00 c0.00-0.042, 0.002-0.084, 0.004-0.125l 5.864,6.842 L 902.069,470.517C 902.024,470.35, 902.00,470.177, 902.00,470.00z M 920.00,472.00L 904.00,472.00 c-0.177,0.00-0.35-0.024-0.517-0.069l 5.691-5.691L 912.00,469.537 l 2.826-3.297l 5.691,5.691C 920.35,471.976, 920.177,472.00, 920.00,472.00z M 922.00,470.00c0.00,0.177-0.024,0.35-0.069,0.517l-5.80-5.80L 921.996,457.875 c 0.003,0.042, 0.004,0.083, 0.004,0.125L 922.00,470.00 zM 977.471,450.00c0.00,0.00-6.28,0.00-8.373,0.00C 965.344,450.00, 961.811,452.844, 961.811,456.138c0.00,3.366, 2.559,6.083, 6.378,6.083 c 0.266,0.00, 0.524-0.005, 0.776-0.024c-0.248,0.475-0.425,1.009-0.425,1.564c0.00,0.936, 0.503,1.694, 1.14,2.313 c-0.481,0.00-0.945,0.014-1.452,0.014C 963.579,466.089, 960.00,469.05, 960.00,472.121c0.00,3.024, 3.923,4.916, 8.573,4.916 c 5.301,0.00, 8.228-3.008, 8.228-6.032c0.00-2.425-0.716-3.877-2.928-5.442c-0.757-0.536-2.204-1.839-2.204-2.604 c0.00-0.897, 0.256-1.34, 1.607-2.395c 1.385-1.082, 2.365-2.603, 2.365-4.372c0.00-2.106-0.938-4.159-2.699-4.837l 2.655,0.00 L 977.471,450.00z M 974.546,470.483c 0.066,0.28, 0.103,0.569, 0.103,0.863c0.00,2.444-1.575,4.353-6.093,4.353 c-3.214,0.00-5.535-2.034-5.535-4.478c0.00-2.395, 2.879-4.389, 6.093-4.354c 0.75,0.008, 1.449,0.129, 2.083,0.334 C 972.942,468.415, 974.193,469.101, 974.546,470.483z M 969.401,461.368c-2.157-0.065-4.207-2.413-4.58-5.246 c-0.372-2.833, 1.074-5.001, 3.231-4.937c 2.157,0.065, 4.207,2.338, 4.58,5.171 C 973.004,459.189, 971.557,461.433, 969.401,461.368zM 986.00,456.00L 986.00,450.00L 984.00,450.00L 984.00,456.00L 978.00,456.00L 978.00,458.00L 984.00,458.00L 984.00,464.00L 986.00,464.00L 986.00,458.00L 992.00,458.00L 992.00,456.00 zM 26.672,512.00L 5.289,512.00 C 2.348,512.00,0.00,514.431,0.00,517.371l0.00,21.261 C0.00,541.645, 2.348,544.00, 5.289,544.00l 21.383,0.00 C 29.613,544.00, 32.00,541.645, 32.00,538.632L 32.00,517.371 C 32.00,514.431, 29.613,512.00, 26.672,512.00z M 22.00,513.00l0.00,5.00 l-5.00,0.00 L 17.00,513.00 L 22.00,513.00 z M 15.00,513.00l0.00,5.00 l-5.00,0.00 L 10.00,513.00 L 15.00,513.00 z M 1.00,518.00L 1.00,517.371 C 1.00,514.961, 2.924,513.00, 5.289,513.00L 8.00,513.00 l0.00,5.00 L 1.00,518.00 z M 24.00,532.00l-6.00,0.00 l0.00,6.00 l-4.00,0.00 l0.00-6.00 l-6.00,0.00 l0.00-4.00 l 6.00,0.00 l0.00-6.00 l 4.00,0.00 l0.00,6.00 l 6.00,0.00 L 24.00,532.00 z M 31.00,518.00L 24.00,518.00 L 24.00,513.00 l 2.672,0.00 C 29.059,513.00, 31.00,514.961, 31.00,517.371L 31.00,518.00 zM 64.025,539.177c-0.008-0.079-0.014-0.158-0.018-0.238C 64.011,539.019, 64.018,539.098, 64.025,539.177zM 71.372,529.661c 2.875,0.086, 4.804-2.897, 4.308-6.662c-0.497-3.765-3.231-6.787-6.106-6.873 c-2.876-0.085-4.804,2.796-4.308,6.563C 65.762,526.453, 68.496,529.575, 71.372,529.661zM 96.00,520.00L 96.00,517.334 C 96.00,514.40, 93.601,512.00, 90.667,512.00L 69.334,512.00 C 66.45,512.00, 64.084,514.32, 64.004,517.185 c 1.824-1.606, 4.354-2.947, 6.965-2.947c 2.791,0.00, 11.164,0.00, 11.164,0.00l-2.498,2.113l-3.54,0.00 c 2.348,0.90, 3.599,3.629, 3.599,6.429c0.00,2.352-1.307,4.374-3.153,5.811c-1.801,1.403-2.143,1.991-2.143,3.184 c0.00,1.018, 1.93,2.75, 2.938,3.462c 2.949,2.079, 3.904,4.01, 3.904,7.233c0.00,0.513-0.064,1.026-0.19,1.53l 9.617,0.00 C 93.601,544.00, 96.00,541.602, 96.00,538.666L 96.00,522.00 l-6.00,0.00 L 90.00,528.00 l-2.00,0.00 l0.00-6.00 l-6.00,0.00 l0.00-2.00 L 88.00,520.00 L 88.00,514.00 l 2.00,0.00 l0.00,6.00 L 96.00,520.00 zM 69.809,535.936c 0.675,0.00, 1.294-0.018, 1.935-0.018c-0.848-0.823-1.52-1.831-1.52-3.074 c0.00-0.738, 0.236-1.448, 0.567-2.079c-0.337,0.024-0.681,0.031-1.035,0.031c-2.324,0.00-4.297-0.752-5.756-1.995l0.00,2.101 l 0.00,6.304C 65.67,536.412, 67.653,535.936, 69.809,535.936zM 64.107,539.727c-0.035-0.171-0.061-0.344-0.079-0.52C 64.045,539.383, 64.072,539.556, 64.107,539.727zM 78.233,541.776c-0.471-1.838-2.139-2.749-4.465-4.362c-0.846-0.273-1.778-0.434-2.778-0.444 c-2.801-0.03-5.41,1.092-6.882,2.762C 64.605,542.161, 66.765,544.00, 69.334,544.00l 8.951,0.00 c 0.057-0.348, 0.084-0.707, 0.084-1.076 C 78.37,542.532, 78.322,542.149, 78.233,541.776zM 154.667,512.00L 133.334,512.00 C 130.40,512.00, 128.00,514.40, 128.00,517.334l0.00,21.332 C 128.00,541.602, 130.40,544.00, 133.334,544.00l 21.333,0.00 c 2.934,0.00, 5.333-2.398, 5.333-5.334L 160.00,517.334 C 160.00,514.40, 157.601,512.00, 154.667,512.00z M 155.206,528.00L 150.00,528.00 l0.00,14.00 l-6.00,0.00 L 144.00,528.00 l-2.891,0.00 l0.00-4.58 L 144.00,523.42 l0.00-2.975 C 144.00,516.403, 145.744,514.00, 150.496,514.00l 5.476,0.00 l0.00,4.955 l-4.473,0.00 c-1.328-0.002-1.492,0.692-1.492,1.985L 150.00,523.42l 6.00,0.00 L 155.206,528.00zM 224.00,518.076c-1.177,0.522-2.443,0.875-3.771,1.034c 1.355-0.813, 2.396-2.099, 2.887-3.632 c-1.269,0.752-2.674,1.299-4.169,1.593c-1.198-1.276-2.904-2.073-4.792-2.073c-3.626,0.00-6.565,2.939-6.565,6.565 c0.00,0.515, 0.058,1.016, 0.17,1.496c-5.456-0.274-10.294-2.888-13.532-6.86c-0.565,0.97-0.889,2.097-0.889,3.301 c0.00,2.278, 1.159,4.287, 2.921,5.465c-1.076-0.034-2.088-0.329-2.974-0.821c-0.001,0.027-0.001,0.055-0.001,0.083 c0.00,3.181, 2.263,5.834, 5.266,6.438c-0.551,0.15-1.131,0.23-1.73,0.23c-0.423,0.00-0.834-0.041-1.235-0.118 c 0.836,2.608, 3.26,4.506, 6.133,4.559c-2.247,1.761-5.078,2.81-8.154,2.81c-0.53,0.00-1.052-0.031-1.566-0.092 c 2.905,1.863, 6.356,2.95, 10.064,2.95c 12.076,0.00, 18.679-10.004, 18.679-18.68c0.00-0.285-0.006-0.568-0.019-0.849 C 222.007,520.548, 223.12,519.392, 224.00,518.076zM 282.667,512.00L 261.334,512.00 C 258.40,512.00, 256.00,514.40, 256.00,517.334l0.00,21.332 C 256.00,541.602, 258.40,544.00, 261.334,544.00l 21.333,0.00 C 285.601,544.00, 288.00,541.602, 288.00,538.666L 288.00,517.334 C 288.00,514.40, 285.601,512.00, 282.667,512.00z M 282.189,522.682 c 0.01,0.229, 0.015,0.46, 0.015,0.692c0.00,7.069-5.288,15.221-14.958,15.221c-2.969,0.00-5.732-0.886-8.059-2.404 c 0.411,0.05, 0.83,0.075, 1.254,0.075c 2.463,0.00, 4.73-0.855, 6.529-2.29c-2.30-0.043-4.242-1.59-4.911-3.715 c 0.321,0.063, 0.65,0.096, 0.989,0.096c 0.479,0.00, 0.944-0.066, 1.385-0.188c-2.405-0.492-4.217-2.654-4.217-5.245 c0.00-0.023,0.00-0.045, 0.001-0.067c 0.709,0.401, 1.52,0.641, 2.381,0.669c-1.411-0.959-2.339-2.597-2.339-4.453 c0.00-0.98, 0.259-1.899, 0.712-2.689c 2.593,3.237, 6.467,5.366, 10.836,5.589c-0.09-0.392-0.136-0.80-0.136-1.219 c0.00-2.954, 2.354-5.349, 5.257-5.349c 1.512,0.00, 2.879,0.65, 3.838,1.689c 1.198-0.24, 2.323-0.685, 3.338-1.298 c-0.393,1.249-1.226,2.298-2.311,2.96c 1.063-0.129, 2.077-0.417, 3.019-0.842C 284.108,520.986, 283.216,521.928, 282.189,522.682 zM 346.667,512.00L 325.334,512.00 C 322.40,512.00, 320.00,514.40, 320.00,517.334l0.00,21.332 C 320.00,541.602, 322.40,544.00, 325.334,544.00L 346.667,544.00 c 2.934,0.00, 5.333-2.398, 5.333-5.334L 352.00,517.334 C 352.00,514.40, 349.601,512.00, 346.667,512.00z M 328.717,537.977C 327.218,537.977, 326.00,536.767, 326.00,535.269 c0.00-1.49, 1.218-2.713, 2.717-2.713c 1.505,0.00, 2.721,1.223, 2.721,2.713C 331.438,536.767, 330.222,537.977, 328.717,537.977z M 335.546,538.00c0.00-2.557-0.994-4.963-2.796-6.764c-1.804-1.805-4.199-2.801-6.747-2.801L 326.003,524.523 c 7.427,0.00, 13.473,6.045, 13.473,13.477L 335.546,538.00L 335.546,538.00z M 342.488,538.00 c0.00-9.096-7.396-16.498-16.48-16.498L 326.008,517.588 c 11.25,0.00, 20.405,9.16, 20.405,20.412L 342.488,538.00L 342.488,538.00zM 392.313,520.646c 1.026-1.026, 2.688-1.026, 3.713-0.001l 0.245,0.246l 3.159-3.161l-0.246-0.246 c-1.801-1.803-4.329-2.434-6.638-1.891C 392.214,513.555, 390.449,512.001, 388.321,512.00C 385.957,512.00, 384.041,513.92, 384.041,516.286 c0.00,2.042, 1.425,3.75, 3.333,4.182c-0.723,2.42-0.133,5.151, 1.776,7.062l 7.12,7.122l 3.156-3.163L 392.307,524.368 C 391.286,523.345, 391.284,521.676, 392.313,520.646zM 415.96,516.286C 415.96,513.919, 414.044,512.00, 411.679,512.00c-2.164,0.00-3.952,1.608-4.24,3.695 c-2.409-0.708-5.118-0.109-7.02,1.794l-7.12,7.122l 3.159,3.162l 7.118-7.12c 1.029-1.03, 2.687-1.028, 3.709-0.006 c 1.025,1.026, 1.025,2.691-0.001,3.717l-0.244,0.245l 3.157,3.164l 0.246-0.248c 1.889-1.893, 2.49-4.586, 1.80-6.989 C 414.341,520.26, 415.96,518.462, 415.96,516.286zM 412.321,535.471c 0.566-2.327-0.062-4.885-1.878-6.703L 403.333,521.643l-3.159,3.16l 7.11,7.125 c 1.029,1.031, 1.027,2.691, 0.006,3.714c-1.025,1.025-2.688,1.025-3.714-0.001l-0.243-0.243l-3.156,3.164l 0.242,0.241 c 1.922,1.925, 4.676,2.514, 7.105,1.765C 407.919,542.527, 409.647,544.00, 411.72,544.00C 414.082,544.00, 416.00,542.083, 416.00,539.715 C 416.00,537.552, 414.401,535.763, 412.321,535.471zM 403.136,528.521L 396.025,535.646c-1.022,1.024-2.689,1.026-3.717-0.004c-1.026-1.028-1.026-2.691-0.001-3.718 l 0.244-0.243l-3.159-3.16l-0.242,0.241c-1.836,1.838-2.455,4.432-1.858,6.781C 385.405,535.989, 384.00,537.688, 384.00,539.715 C 383.999,542.082, 385.917,544.00, 388.281,544.00c 2.034-0.001, 3.737-1.419, 4.173-3.324c 2.334,0.58, 4.906-0.041, 6.729-1.867 l 7.109-7.124L 403.136,528.521zM 475.52,516.087c 0.803,0.393, 1.503,0.953, 2.016,1.64c 1.079,1.447, 1.382,3.418, 0.901,5.858 c-0.486,2.47-1.575,4.554-3.161,6.064c-0.29,0.303-0.601,0.586-0.931,0.846c-1.699,1.338-3.844,2.045-6.203,2.045 l-0.379,0.00 L 460.639,532.54 L 458.621,542.00l-4.138,0.00 l 0.315-1.447l 1.442,0.00 l 2.018-9.46l 5.883,0.00 c 5.633,0.00, 10.342-3.471, 11.602-9.373 C 477.171,515.038, 472.38,512.00, 468.261,512.00L 454.221,512.00 L 448.00,540.553l 4.751,0.00 L 452.00,544.00l 8.239,0.00 l 2.018-9.46l 5.883,0.00 c 5.633,0.00, 10.342-3.471, 11.602-9.373C 480.796,520.239, 478.467,517.294, 475.52,516.087z M 461.198,517.815l 4.035,0.00 c 2.018,0.00, 3.363,1.736, 2.775,3.905c-0.504,2.17-2.606,3.905-4.707,3.905l-3.867,0.00 L 461.198,517.815zM 539.52,516.087c 0.803,0.393, 1.503,0.953, 2.016,1.64c 1.079,1.447, 1.382,3.418, 0.901,5.858 c-0.486,2.47-1.575,4.554-3.161,6.064c-0.29,0.303-0.601,0.586-0.931,0.846c-1.699,1.338-3.844,2.045-6.203,2.045 l-0.379,0.00 L 524.639,532.54 L 522.621,542.00l-4.138,0.00 l 0.315-1.447l 1.442,0.00 l 2.018-9.46l 5.883,0.00 c 5.633,0.00, 10.342-3.471, 11.602-9.373 C 541.171,515.038, 536.38,512.00, 532.261,512.00L 518.221,512.00 L 512.00,540.553l 4.751,0.00 L 516.00,544.00l 8.239,0.00 l 2.018-9.46l 5.883,0.00 c 5.633,0.00, 10.342-3.471, 11.602-9.373C 544.796,520.239, 542.467,517.294, 539.52,516.087z M 532.008,521.72 c-0.429,1.846-2.013,3.376-3.771,3.793l 0.961-4.251l 2.906,0.00 C 532.081,521.412, 532.05,521.565, 532.008,521.72z M 525.198,517.815 l 4.035,0.00 c 1.149,0.00, 2.078,0.563, 2.558,1.447l-4.192,0.00 l-1.438,6.363l-2.728,0.00 L 525.198,517.815zM 592.707,512.707C 592.318,512.318, 591.55,512.00, 591.00,512.00L 579.00,512.00 c-0.55,0.00-1.00,0.45-1.00,1.00l0.00,30.00 c0.00,0.55, 0.45,1.00, 1.00,1.00l 24.00,0.00 c 0.55,0.00, 1.00-0.45, 1.00-1.00L 604.00,525.00 c0.00-0.55-0.318-1.318-0.707-1.707L 592.707,512.707z M 602.00,542.00L 580.00,542.00 L 580.00,514.00 l 10.974,0.00 c 0.091,0.015, 0.263,0.086, 0.338,0.14l 10.549,10.549 c 0.054,0.075, 0.125,0.247, 0.14,0.338L 602.00,542.00 zM 603.00,512.00l-6.00,0.00 c-0.55,0.00-0.682,0.318-0.293,0.707l 6.586,6.586C 603.682,519.682, 604.00,519.55, 604.00,519.00L 604.00,513.00 C 604.00,512.45, 603.55,512.00, 603.00,512.00 zM 666.313,530.421c-0.426-0.42-1.372-0.643-2.812-0.662c-0.974-0.011-2.147,0.075-3.38,0.248 c-0.552-0.319-1.122-0.665-1.568-1.083c-1.202-1.122-2.205-2.68-2.83-4.394c 0.041-0.16, 0.075-0.301, 0.108-0.444 c0.00,0.00, 0.677-3.846, 0.498-5.146c-0.025-0.178-0.04-0.23-0.088-0.369l-0.059-0.151c-0.184-0.425-0.545-0.875-1.111-0.85 l-0.332-0.011l-0.009,0.00c-0.631,0.00-1.146,0.323-1.281,0.805c-0.411,1.514, 0.013,3.778, 0.781,6.711l-0.197,0.478 c-0.55,1.34-1.238,2.689-1.846,3.88l-0.079,0.155c-0.639,1.251-1.22,2.313-1.745,3.213l-0.543,0.287 c-0.04,0.021-0.97,0.513-1.188,0.645c-1.852,1.106-3.079,2.361-3.282,3.357c-0.065,0.318-0.017,0.725, 0.313,0.913 l 0.525,0.264c 0.228,0.114, 0.468,0.172, 0.714,0.172c 1.319,0.00, 2.85-1.643, 4.959-5.324 c 2.435-0.793, 5.208-1.452, 7.638-1.815c 1.852,1.043, 4.129,1.767, 5.567,1.767c 0.255,0.00, 0.475-0.024, 0.654-0.072 c 0.276-0.073, 0.508-0.23, 0.65-0.444c 0.279-0.42, 0.335-0.998, 0.26-1.59C 666.605,530.787, 666.465,530.57, 666.313,530.421z M 646.614,537.439c 0.24-0.658, 1.192-1.958, 2.60-3.111c 0.088-0.072, 0.306-0.276, 0.506-0.466 C 648.248,536.21, 647.262,537.145, 646.614,537.439z M 654.951,518.24c 0.424,0.00, 0.665,1.069, 0.685,2.07 c 0.02,1.002-0.214,1.705-0.505,2.225c-0.241-0.77-0.357-1.984-0.357-2.778C 654.774,519.758, 654.757,518.24, 654.951,518.24z M 652.464,531.922c 0.295-0.529, 0.603-1.086, 0.917-1.677c 0.765-1.447, 1.249-2.58, 1.609-3.511 c 0.716,1.303, 1.608,2.41, 2.656,3.297c 0.131,0.111, 0.269,0.222, 0.415,0.333C 655.928,530.785, 654.086,531.298, 652.464,531.922z M 665.903,531.802c-0.13,0.081-0.502,0.128-0.741,0.128c-0.772,0.00-1.727-0.353-3.066-0.927 c 0.515-0.038, 0.986-0.057, 1.409-0.057c 0.774,0.00, 1.004-0.003, 1.761,0.19S 666.033,531.72, 665.903,531.802zM 668.232,518.232l-4.465-4.464C 662.796,512.795, 660.875,512.00, 659.50,512.00L 644.50,512.00 C 643.125,512.00, 642.00,513.125, 642.00,514.50l0.00,27.00 c0.00,1.375, 1.125,2.50, 2.50,2.50l 23.00,0.00 c 1.375,0.00, 2.50-1.125, 2.50-2.50L 670.00,522.50 C 670.00,521.125, 669.204,519.204, 668.232,518.232z M 666.818,519.646c 0.098,0.098, 0.195,0.218, 0.29,0.354L 662.00,520.00 L 662.00,514.892 c 0.136,0.095, 0.256,0.192, 0.354,0.29L 666.818,519.646z M 668.00,541.50c0.00,0.271-0.229,0.50-0.50,0.50L 644.50,542.00 c-0.271,0.00-0.50-0.229-0.50-0.50L 644.00,514.50 c0.00-0.271, 0.229-0.50, 0.50-0.50l 15.00,0.00 c 0.151,0.00, 0.32,0.019, 0.50,0.053L 660.00,522.00 l 7.947,0.00 c 0.034,0.18, 0.053,0.349, 0.053,0.50L 668.00,541.50 zM 725.569,526.74c-1.896-0.895-4.312-1.076-6.089,0.189c 2.161-0.206, 4.53,0.151, 6.097,1.785 c 1.50-1.721, 3.879-2.044, 6.03-1.867C 729.811,525.656, 727.445,525.816, 725.569,526.74zM 724.802,530.93c-2.137-0.049-4.201,0.724-5.972,1.878c-3.349-1.425-7.585-1.16-10.438,1.218 c 0.823-0.029, 1.625-0.233, 2.439-0.337c 2.974-0.296, 6.143,0.442, 8.391,2.494c 0.93-1.361, 2.239-2.445, 3.739-3.123 c 1.971-0.954, 4.192-1.053, 6.338-1.079C 727.997,531.087, 726.343,530.921, 724.802,530.93zM 732.232,518.232l-4.465-4.464C 726.796,512.795, 724.875,512.00, 723.50,512.00L 708.50,512.00 C 707.125,512.00, 706.00,513.125, 706.00,514.50l0.00,27.00 c0.00,1.375, 1.125,2.50, 2.50,2.50l 23.00,0.00 c 1.375,0.00, 2.50-1.125, 2.50-2.50L 734.00,522.50 C 734.00,521.125, 733.204,519.204, 732.232,518.232z M 730.818,519.646c 0.098,0.098, 0.195,0.218, 0.29,0.354L 726.00,520.00 L 726.00,514.892 c 0.136,0.095, 0.256,0.192, 0.354,0.29L 730.818,519.646z M 732.00,541.50c0.00,0.271-0.229,0.50-0.50,0.50L 708.50,542.00 c-0.271,0.00-0.50-0.229-0.50-0.50L 708.00,514.50 c0.00-0.271, 0.229-0.50, 0.50-0.50l 15.00,0.00 c 0.151,0.00, 0.32,0.019, 0.50,0.053L 724.00,522.00 l 7.947,0.00 c 0.034,0.18, 0.053,0.349, 0.053,0.50L 732.00,541.50 zM 787.00,528.00c-2.762,0.00-5.00,2.239-5.00,5.00s 2.238,5.00, 5.00,5.00c 2.761,0.00, 5.00-2.239, 5.00-5.00S 789.761,528.00, 787.00,528.00z M 787.00,533.00 l0.00-4.00 c 2.205,0.00, 4.00,1.794, 4.00,4.00L 787.00,533.00 zM 774.00,528.00L 780.00,528.00L 780.00,530.00L 774.00,530.00zM 774.00,532.00L 780.00,532.00L 780.00,534.00L 774.00,534.00zM 774.00,536.00L 780.00,536.00L 780.00,538.00L 774.00,538.00zM 796.232,518.232l-4.465-4.464C 790.796,512.795, 788.875,512.00, 787.50,512.00L 772.50,512.00 C 771.125,512.00, 770.00,513.125, 770.00,514.50l0.00,27.00 c0.00,1.375, 1.125,2.50, 2.50,2.50l 23.00,0.00 c 1.375,0.00, 2.50-1.125, 2.50-2.50L 798.00,522.50 C 798.00,521.125, 797.204,519.204, 796.232,518.232z M 794.818,519.646c 0.098,0.098, 0.195,0.218, 0.29,0.354L 790.00,520.00 L 790.00,514.892 c 0.136,0.095, 0.256,0.192, 0.354,0.29L 794.818,519.646z M 796.00,541.50c0.00,0.271-0.229,0.50-0.50,0.50L 772.50,542.00 c-0.271,0.00-0.50-0.229-0.50-0.50L 772.00,514.50 c0.00-0.271, 0.229-0.50, 0.50-0.50l 15.00,0.00 c 0.151,0.00, 0.32,0.019, 0.50,0.053L 788.00,522.00 l 7.947,0.00 c 0.034,0.18, 0.053,0.349, 0.053,0.50L 796.00,541.50 zM 845.00,516.00L 848.00,516.00L 848.00,518.00L 845.00,518.00zM 842.00,518.00L 845.00,518.00L 845.00,520.00L 842.00,520.00zM 845.00,520.00L 848.00,520.00L 848.00,522.00L 845.00,522.00zM 842.00,522.00L 845.00,522.00L 845.00,524.00L 842.00,524.00zM 845.00,524.00L 848.00,524.00L 848.00,526.00L 845.00,526.00zM 842.00,526.00L 845.00,526.00L 845.00,528.00L 842.00,528.00zM 845.00,528.00l0.00,2.00 l-3.00,0.00 l0.00,7.00 c0.00,0.552, 0.448,1.00, 1.00,1.00l 4.00,0.00 c 0.552,0.00, 1.00-0.448, 1.00-1.00L 848.00,528.00 L 845.00,528.00 z M 847.00,536.00l-4.00,0.00 l0.00-2.00 l 4.00,0.00 L 847.00,536.00 zM 860.232,518.232l-4.465-4.464C 854.796,512.795, 852.875,512.00, 851.50,512.00L 836.50,512.00 C 835.125,512.00, 834.00,513.125, 834.00,514.50l0.00,27.00 c0.00,1.375, 1.125,2.50, 2.50,2.50l 23.00,0.00 c 1.375,0.00, 2.50-1.125, 2.50-2.50L 862.00,522.50 C 862.00,521.125, 861.204,519.204, 860.232,518.232z M 858.818,519.646c 0.098,0.098, 0.195,0.218, 0.29,0.354L 854.00,520.00 L 854.00,514.892 c 0.136,0.095, 0.256,0.192, 0.354,0.29L 858.818,519.646z M 860.00,541.50c0.00,0.271-0.229,0.50-0.50,0.50L 836.50,542.00 c-0.271,0.00-0.50-0.229-0.50-0.50L 836.00,514.50 c0.00-0.271, 0.229-0.50, 0.50-0.50l 15.00,0.00 c 0.151,0.00, 0.32,0.019, 0.50,0.053L 852.00,522.00 l 7.947,0.00 c 0.034,0.18, 0.053,0.349, 0.053,0.50L 860.00,541.50 zM 928.00,540.00L 928.00,516.00L 916.00,528.00L 916.00,540.00 zM 908.00,540.00L 908.00,516.00L 896.00,528.00L 896.00,540.00 zM 960.00,516.00L 960.00,540.00L 972.00,528.00L 972.00,516.00 zM 980.00,516.00L 980.00,540.00L 992.00,528.00L 992.00,516.00 z"></path></svg>