<?xml version="1.0" encoding="utf-8"?> <!-- Generator: IcoMoon.io --> <!DOCTYPE svg PUBLIC "-//W3C//DTD SVG 1.1//EN" "http://www.w3.org/Graphics/SVG/1.1/DTD/svg11.dtd"> <svg fill="#000000" xmlns:xlink="http://www.w3.org/1999/xlink" xmlns="http://www.w3.org/2000/svg" width="512" height="512" viewBox="0 0 512 512"><path d="M 446.141,362.593c 0.852-10.12, 21.951-23.983, 21.934-34.12c-0.049-10.643-18.482-28.455-17.086-39.007 c 1.104-8.37, 16.555-20.793, 17.059-29.245c 0.898-15.353-19.852-45.40-34.119-51.174c-22.643-9.168-137.705-4.883-137.705-4.883 c-11.246-19.653, 20.035-68.201, 28.639-89.162c 12.631-30.719, 10.504-71.466-5.471-92.399C 299.879-2.98, 264.063-4.68, 263.325,6.762 c-5.336,83.01-21.229,106.053-42.505,122.455c-12.786,9.863-23.954,18.497-29.854,33.528 c-36.261,92.354-65.52,122.037-79.528,125.254L 64.00,287.999 l0.00,198.885 l 145.721,19.501c0.00,0.00, 133.455,12.632, 175.482,0.00 c 13.223-3.966, 36.039-23.818, 41.432-36.556c 3.074-7.315-1.197-24.622, 2.443-31.677c 5.371-10.458, 28.051-23.559, 28.027-37.771 C 457.082,390.246, 445.276,372.702, 446.141,362.593z" ></path></svg>