<?xml version="1.0" encoding="utf-8"?> <!-- Generator: IcoMoon.io --> <!DOCTYPE svg PUBLIC "-//W3C//DTD SVG 1.1//EN" "http://www.w3.org/Graphics/SVG/1.1/DTD/svg11.dtd"> <svg fill="#000000" xmlns:xlink="http://www.w3.org/1999/xlink" xmlns="http://www.w3.org/2000/svg" width="512" height="512" viewBox="0 0 512 512"><path d="M 468.051,251.767c-0.50-8.447-15.959-20.854-17.063-29.237c-1.398-10.544, 17.047-28.369, 17.076-39.00 c 0.023-10.137-21.072-24.002-21.93-34.127c-0.861-10.104, 10.953-27.644, 10.969-37.781c 0.025-14.216-22.658-27.314-28.033-37.771 c-3.631-7.059, 0.643-24.368-2.443-31.681c-5.385-12.739-28.203-32.595-41.414-36.556c-42.035-12.629-175.483,0.00-175.483,0.00L 64.00,25.11 L 64.00,224.00 l 47.445,0.00 c 13.993,7.782, 43.261,32.282, 79.526,124.636c 5.90,15.034, 17.073,24.288, 29.854,34.143 c 21.282,16.406, 37.157,39.442, 42.493,122.459c 0.743,11.443, 36.557,9.74, 56.064-15.837c 15.975-20.931, 18.109-61.682, 5.484-92.402 c-8.604-20.962-39.895-69.511-28.643-89.171c0.00,0.00, 115.066,4.285, 137.701-4.871C 448.192,297.183, 468.942,267.127, 468.051,251.767z" ></path></svg>